<svg width="74" height="24" viewBox="0 0 74 24" fill="none" xmlns="http://www.w3.org/2000/svg">
<path fill-rule="evenodd" clip-rule="evenodd" d="M9.14124 3.64124C10.032 2.75044 11.2402 2.25 12.5 2.25C13.7598 2.25 14.968 2.75044 15.8588 3.64124C16.7496 4.53204 17.25 5.74022 17.25 7C17.25 8.25978 16.7496 9.46796 15.8588 10.3588C14.968 11.2496 13.7598 11.75 12.5 11.75C11.2402 11.75 10.032 11.2496 9.14124 10.3588C8.25044 9.46796 7.75 8.25978 7.75 7C7.75 5.74022 8.25044 4.53204 9.14124 3.64124ZM12.5 3.75C11.638 3.75 10.8114 4.09241 10.2019 4.7019C9.59241 5.3114 9.25 6.13805 9.25 7C9.25 7.86195 9.59241 8.6886 10.2019 9.2981C10.8114 9.90759 11.638 10.25 12.5 10.25C13.362 10.25 14.1886 9.90759 14.7981 9.2981C15.4076 8.6886 15.75 7.86195 15.75 7C15.75 6.13805 15.4076 5.3114 14.7981 4.7019C14.1886 4.09241 13.362 3.75 12.5 3.75ZM10.5 15.75C9.63805 15.75 8.8114 16.0924 8.2019 16.7019C7.59241 17.3114 7.25 18.138 7.25 19V21C7.25 21.4142 6.91421 21.75 6.5 21.75C6.08579 21.75 5.75 21.4142 5.75 21V19C5.75 17.7402 6.25044 16.532 7.14124 15.6412C8.03204 14.7504 9.24022 14.25 10.5 14.25H13C13.4142 14.25 13.75 14.5858 13.75 15C13.75 15.4142 13.4142 15.75 13 15.75H10.5ZM19.501 14.75C19.9152 14.75 20.251 15.0858 20.251 15.5V16.3542C20.686 16.4776 21.0877 16.7074 21.4173 17.0276L22.157 16.6005C22.5157 16.3934 22.9744 16.5163 23.1815 16.875C23.3886 17.2337 23.2657 17.6924 22.907 17.8995L22.1673 18.3266C22.2224 18.5449 22.251 18.771 22.251 19C22.251 19.2289 22.2225 19.4549 22.1673 19.6732L22.9078 20.1004C23.2666 20.3074 23.3896 20.766 23.1826 21.1248C22.9757 21.4836 22.517 21.6066 22.1582 21.3996L21.4174 20.9723C21.0878 21.2926 20.6861 21.5224 20.251 21.6458V22.5C20.251 22.9142 19.9152 23.25 19.501 23.25C19.0868 23.25 18.751 22.9142 18.751 22.5V21.6458C18.3161 21.5225 17.9145 21.2927 17.585 20.9726L16.8448 21.3996C16.486 21.6066 16.0274 21.4836 15.8204 21.1248C15.6134 20.766 15.7364 20.3074 16.0952 20.1004L16.8348 19.6737C16.7796 19.4552 16.751 19.2291 16.751 19C16.751 18.7709 16.7796 18.5448 16.8348 18.3263L16.0952 17.8996C15.7364 17.6926 15.6134 17.234 15.8204 16.8752C16.0274 16.5164 16.486 16.3934 16.8448 16.6004L17.585 17.0274C17.9145 16.7073 18.3161 16.4775 18.751 16.3542V15.5C18.751 15.0858 19.0868 14.75 19.501 14.75ZM18.4043 18.4003C18.4095 18.3919 18.4147 18.3834 18.4196 18.3748C18.4245 18.3664 18.4291 18.358 18.4336 18.3495C18.4849 18.2654 18.5463 18.1869 18.6171 18.1161C18.8515 17.8817 19.1695 17.75 19.501 17.75C19.8325 17.75 20.1505 17.8817 20.3849 18.1161C20.4611 18.1923 20.5265 18.2774 20.58 18.3689C20.5811 18.3709 20.5823 18.373 20.5835 18.375C20.5847 18.377 20.5858 18.3791 20.587 18.3811C20.6936 18.568 20.751 18.7811 20.751 19C20.751 19.219 20.6936 19.432 20.587 19.6189C20.5858 19.621 20.5846 19.6231 20.5834 19.6252C20.5822 19.6272 20.5811 19.6291 20.58 19.6311C20.5265 19.7226 20.4611 19.8076 20.3849 19.8839C20.1505 20.1183 19.8325 20.25 19.501 20.25C19.1695 20.25 18.8515 20.1183 18.6171 19.8839C18.5463 19.8131 18.4849 19.7346 18.4336 19.6505C18.4291 19.642 18.4245 19.6336 18.4196 19.6252C18.4147 19.6166 18.4095 19.6081 18.4043 19.5997C18.3046 19.4174 18.251 19.2115 18.251 19C18.251 18.7885 18.3046 18.5826 18.4043 18.4003Z" fill="#757C8D"/>
<path d="M33.2872 17L36.0872 7.2H38.7472L41.5332 17H39.9792L39.3352 14.69H35.4992L34.8552 17H33.2872ZM35.8772 13.29H38.9572L37.5292 8.138H37.3052L35.8772 13.29ZM45.7589 17.196C45.1895 17.196 44.6622 17.056 44.1769 16.776C43.6915 16.496 43.2995 16.0947 43.0009 15.572C42.7115 15.04 42.5669 14.4007 42.5669 13.654V13.444C42.5669 12.7067 42.7115 12.072 43.0009 11.54C43.2902 11.008 43.6775 10.602 44.1629 10.322C44.6482 10.042 45.1802 9.902 45.7589 9.902C46.2069 9.902 46.5802 9.958 46.8789 10.07C47.1869 10.182 47.4389 10.3267 47.6349 10.504C47.8309 10.672 47.9802 10.8493 48.0829 11.036H48.3069V7.2H49.7489V17H48.3349V16.02H48.1109C47.9335 16.3187 47.6629 16.5893 47.2989 16.832C46.9442 17.0747 46.4309 17.196 45.7589 17.196ZM46.1649 15.936C46.7902 15.936 47.3035 15.7353 47.7049 15.334C48.1155 14.9327 48.3209 14.3587 48.3209 13.612V13.486C48.3209 12.7487 48.1202 12.1793 47.7189 11.778C47.3175 11.3767 46.7995 11.176 46.1649 11.176C45.5489 11.176 45.0355 11.3767 44.6249 11.778C44.2235 12.1793 44.0229 12.7487 44.0229 13.486V13.612C44.0229 14.3587 44.2235 14.9327 44.6249 15.334C45.0355 15.7353 45.5489 15.936 46.1649 15.936ZM51.8716 17V10.098H53.2856V10.91H53.5096C53.6403 10.6673 53.8503 10.4527 54.1396 10.266C54.429 10.0793 54.821 9.986 55.3156 9.986C55.829 9.986 56.2396 10.0933 56.5476 10.308C56.865 10.5133 57.103 10.7793 57.2616 11.106H57.4856C57.6443 10.7887 57.873 10.5227 58.1716 10.308C58.4796 10.0933 58.9136 9.986 59.4736 9.986C59.9216 9.986 60.3183 10.0793 60.6636 10.266C61.009 10.4433 61.2843 10.714 61.4896 11.078C61.695 11.4327 61.7976 11.876 61.7976 12.408V17H60.3556V12.52C60.3556 12.1 60.239 11.778 60.0056 11.554C59.7816 11.3207 59.4596 11.204 59.0396 11.204C58.5916 11.204 58.2323 11.3487 57.9616 11.638C57.691 11.9273 57.5556 12.3427 57.5556 12.884V17H56.1136V12.52C56.1136 12.1 55.997 11.778 55.7636 11.554C55.5396 11.3207 55.2176 11.204 54.7976 11.204C54.3496 11.204 53.9903 11.3487 53.7196 11.638C53.449 11.9273 53.3136 12.3427 53.3136 12.884V17H51.8716ZM63.8755 17V10.098H65.3175V17H63.8755ZM64.6035 9.16C64.3235 9.16 64.0855 9.07133 63.8895 8.894C63.7029 8.70733 63.6095 8.46933 63.6095 8.18C63.6095 7.89067 63.7029 7.65733 63.8895 7.48C64.0855 7.29333 64.3235 7.2 64.6035 7.2C64.8929 7.2 65.1309 7.29333 65.3175 7.48C65.5042 7.65733 65.5975 7.89067 65.5975 8.18C65.5975 8.46933 65.5042 8.70733 65.3175 8.894C65.1309 9.07133 64.8929 9.16 64.6035 9.16ZM67.4576 17V10.098H68.8716V11.134H69.0956C69.2262 10.854 69.4596 10.5927 69.7956 10.35C70.1316 10.1073 70.6309 9.986 71.2936 9.986C71.8162 9.986 72.2782 10.1027 72.6796 10.336C73.0902 10.5693 73.4122 10.9007 73.6456 11.33C73.8789 11.75 73.9956 12.2587 73.9956 12.856V17H72.5536V12.968C72.5536 12.3707 72.4042 11.932 72.1056 11.652C71.8069 11.3627 71.3962 11.218 70.8736 11.218C70.2762 11.218 69.7956 11.414 69.4316 11.806C69.0769 12.198 68.8996 12.7673 68.8996 13.514V17H67.4576Z" fill="#757C8D"/>
</svg>
