<svg width="54" height="53" viewBox="0 0 54 53" fill="none" xmlns="http://www.w3.org/2000/svg">
<rect x="1" y="0.5" width="52" height="52" rx="26" stroke="#D9DBE0"/>
<path fill-rule="evenodd" clip-rule="evenodd" d="M21.5581 21.0581C21.8021 20.814 22.1979 20.814 22.4419 21.0581L27 25.6161L31.5581 21.0581C31.8021 20.814 32.1979 20.814 32.4419 21.0581C32.686 21.3021 32.686 21.6979 32.4419 21.9419L27.8839 26.5L32.4419 31.0581C32.686 31.3021 32.686 31.6979 32.4419 31.9419C32.1979 32.186 31.8021 32.186 31.5581 31.9419L27 27.3839L22.4419 31.9419C22.1979 32.186 21.8021 32.186 21.5581 31.9419C21.314 31.6979 21.314 31.3021 21.5581 31.0581L26.1161 26.5L21.5581 21.9419C21.314 21.6979 21.314 21.3021 21.5581 21.0581Z" fill="#0052BD"/>
</svg>
