<svg width="224" height="20" viewBox="0 0 224 20" fill="none" xmlns="http://www.w3.org/2000/svg">
<path fill-rule="evenodd" clip-rule="evenodd" d="M7.3907 2.49348C8.37647 2.08516 9.43301 1.875 10.5 1.875C11.567 1.875 12.6235 2.08516 13.6093 2.49348C14.5951 2.9018 15.4908 3.50028 16.2452 4.25476C16.9997 5.00923 17.5982 5.90493 18.0065 6.8907C18.4148 7.87647 18.625 8.93301 18.625 10C18.625 11.067 18.4148 12.1235 18.0065 13.1093C17.5982 14.0951 16.9997 14.9908 16.2452 15.7452C15.4908 16.4997 14.5951 17.0982 13.6093 17.5065C12.6235 17.9148 11.567 18.125 10.5 18.125C9.43301 18.125 8.37647 17.9148 7.3907 17.5065C6.40493 17.0982 5.50923 16.4997 4.75476 15.7452C4.00028 14.9908 3.4018 14.0951 2.99348 13.1093C2.58516 12.1235 2.375 11.067 2.375 10C2.375 8.93301 2.58516 7.87647 2.99348 6.8907C3.4018 5.90493 4.00028 5.00923 4.75476 4.25476C5.50923 3.50028 6.40493 2.9018 7.3907 2.49348ZM10.5 3.125C9.59716 3.125 8.70316 3.30283 7.86905 3.64833C7.03494 3.99383 6.27704 4.50024 5.63864 5.13864C5.00024 5.77704 4.49383 6.53494 4.14833 7.36905C3.80283 8.20316 3.625 9.09716 3.625 10C3.625 10.9028 3.80283 11.7968 4.14833 12.6309C4.49383 13.4651 5.00024 14.223 5.63864 14.8614C6.27704 15.4998 7.03494 16.0062 7.86905 16.3517C8.70316 16.6972 9.59716 16.875 10.5 16.875C11.4028 16.875 12.2968 16.6972 13.1309 16.3517C13.9651 16.0062 14.723 15.4998 15.3614 14.8614C15.9998 14.223 16.5062 13.4651 16.8517 12.6309C17.1972 11.7968 17.375 10.9028 17.375 10C17.375 9.09716 17.1972 8.20316 16.8517 7.36905C16.5062 6.53494 15.9998 5.77704 15.3614 5.13864C14.723 4.50024 13.9651 3.99383 13.1309 3.64833C12.2968 3.30283 11.4028 3.125 10.5 3.125ZM9.32136 5.47416C9.70863 5.28253 10.1351 5.18342 10.5672 5.18462C10.9993 5.18582 11.4252 5.28729 11.8114 5.48106C12.1976 5.67483 12.5335 5.95561 12.7928 6.30127C13.052 6.64694 13.2275 7.04807 13.3054 7.47308C13.3833 7.89808 13.3614 8.33537 13.2416 8.7505C13.1218 9.16564 12.9072 9.54729 12.6148 9.86541C12.3224 10.1835 11.9602 10.4294 11.5566 10.5838L11.5407 10.5896C11.4129 10.6346 11.3031 10.7198 11.228 10.8325C11.1528 10.9453 11.1163 11.0794 11.124 11.2146C11.1435 11.5592 10.88 11.8545 10.5354 11.874C10.1908 11.8936 9.89555 11.63 9.876 11.2854C9.85299 10.8796 9.96245 10.4773 10.1879 10.1392C10.4115 9.80377 10.7372 9.54944 11.1166 9.41375C11.3368 9.32838 11.5346 9.19351 11.6945 9.01953C11.856 8.84385 11.9744 8.63309 12.0406 8.40383C12.1068 8.17458 12.1189 7.93309 12.0758 7.69839C12.0328 7.46368 11.9359 7.24216 11.7928 7.05127C11.6496 6.86038 11.4641 6.70533 11.2508 6.59832C11.0375 6.49131 10.8023 6.43527 10.5637 6.43461C10.3251 6.43395 10.0896 6.48868 9.87572 6.59451C9.66185 6.70033 9.47547 6.85435 9.33124 7.04445C9.12261 7.31943 8.73055 7.37322 8.45557 7.16459C8.18058 6.95595 8.12679 6.5639 8.33542 6.28891C8.59659 5.94468 8.93409 5.66578 9.32136 5.47416ZM10.5 13.5417C10.8452 13.5417 11.125 13.8215 11.125 14.1667V14.175C11.125 14.5202 10.8452 14.8 10.5 14.8C10.1548 14.8 9.875 14.5202 9.875 14.175V14.1667C9.875 13.8215 10.1548 13.5417 10.5 13.5417Z" fill="#757C8D"/>
<path d="M28.6998 9.184L27.3558 6.704H27.3078V16H25.9958V4.832H27.5478L31.6278 11.648L32.9718 14.128H33.0198V4.832H34.3318V16H32.7798L28.6998 9.184ZM40.2843 16.192C39.719 16.192 39.207 16.0907 38.7483 15.888C38.3003 15.6853 37.911 15.3973 37.5803 15.024C37.2603 14.64 37.0096 14.1867 36.8283 13.664C36.6576 13.1307 36.5723 12.5333 36.5723 11.872C36.5723 11.2213 36.6576 10.6293 36.8283 10.096C37.0096 9.56267 37.2603 9.10933 37.5803 8.736C37.911 8.352 38.3003 8.05867 38.7483 7.856C39.207 7.65333 39.719 7.552 40.2843 7.552C40.839 7.552 41.335 7.65333 41.7723 7.856C42.2096 8.05867 42.583 8.34133 42.8923 8.704C43.2016 9.056 43.4363 9.47733 43.5963 9.968C43.767 10.4587 43.8523 10.9973 43.8523 11.584V12.192H37.9163V12.576C37.9163 12.928 37.9696 13.2587 38.0763 13.568C38.1936 13.8667 38.3536 14.128 38.5563 14.352C38.7696 14.576 39.0256 14.752 39.3243 14.88C39.6336 15.008 39.9803 15.072 40.3643 15.072C40.887 15.072 41.3403 14.9493 41.7243 14.704C42.119 14.4587 42.423 14.1067 42.6363 13.648L43.5483 14.304C43.2816 14.8693 42.8656 15.328 42.3003 15.68C41.735 16.0213 41.063 16.192 40.2843 16.192ZM40.2843 8.624C39.9323 8.624 39.6123 8.688 39.3243 8.816C39.0363 8.93333 38.7856 9.104 38.5723 9.328C38.3696 9.552 38.2096 9.81867 38.0923 10.128C37.975 10.4267 37.9163 10.7573 37.9163 11.12V11.232H42.4763V11.056C42.4763 10.32 42.2736 9.73333 41.8683 9.296C41.4736 8.848 40.9456 8.624 40.2843 8.624ZM49.0656 16.192C48.5002 16.192 47.9882 16.0907 47.5296 15.888C47.0816 15.6853 46.6922 15.3973 46.3616 15.024C46.0416 14.64 45.7909 14.1867 45.6096 13.664C45.4389 13.1307 45.3536 12.5333 45.3536 11.872C45.3536 11.2213 45.4389 10.6293 45.6096 10.096C45.7909 9.56267 46.0416 9.10933 46.3616 8.736C46.6922 8.352 47.0816 8.05867 47.5296 7.856C47.9882 7.65333 48.5002 7.552 49.0656 7.552C49.6202 7.552 50.1162 7.65333 50.5536 7.856C50.9909 8.05867 51.3642 8.34133 51.6736 8.704C51.9829 9.056 52.2176 9.47733 52.3776 9.968C52.5482 10.4587 52.6336 10.9973 52.6336 11.584V12.192H46.6976V12.576C46.6976 12.928 46.7509 13.2587 46.8576 13.568C46.9749 13.8667 47.1349 14.128 47.3376 14.352C47.5509 14.576 47.8069 14.752 48.1056 14.88C48.4149 15.008 48.7616 15.072 49.1456 15.072C49.6682 15.072 50.1216 14.9493 50.5056 14.704C50.9002 14.4587 51.2042 14.1067 51.4176 13.648L52.3296 14.304C52.0629 14.8693 51.6469 15.328 51.0816 15.68C50.5162 16.0213 49.8442 16.192 49.0656 16.192ZM49.0656 8.624C48.7136 8.624 48.3936 8.688 48.1056 8.816C47.8176 8.93333 47.5669 9.104 47.3536 9.328C47.1509 9.552 46.9909 9.81867 46.8736 10.128C46.7562 10.4267 46.6976 10.7573 46.6976 11.12V11.232H51.2576V11.056C51.2576 10.32 51.0549 9.73333 50.6496 9.296C50.2549 8.848 49.7269 8.624 49.0656 8.624ZM60.0228 14.656H59.9588C59.4575 15.68 58.6521 16.192 57.5428 16.192C57.0308 16.192 56.5668 16.0907 56.1508 15.888C55.7348 15.6853 55.3775 15.3973 55.0788 15.024C54.7908 14.6507 54.5668 14.1973 54.4068 13.664C54.2575 13.1307 54.1828 12.5333 54.1828 11.872C54.1828 11.2107 54.2575 10.6133 54.4068 10.08C54.5668 9.54667 54.7908 9.09333 55.0788 8.72C55.3775 8.34667 55.7348 8.05867 56.1508 7.856C56.5668 7.65333 57.0308 7.552 57.5428 7.552C58.1188 7.552 58.6095 7.68 59.0148 7.936C59.4308 8.18133 59.7455 8.56533 59.9588 9.088H60.0228V4.16H61.3028V16H60.0228V14.656ZM57.8948 15.04C58.1828 15.04 58.4548 15.0027 58.7108 14.928C58.9775 14.8533 59.2068 14.7467 59.3988 14.608C59.5908 14.4587 59.7401 14.2827 59.8468 14.08C59.9641 13.8667 60.0228 13.6267 60.0228 13.36V10.288C60.0228 10.064 59.9641 9.856 59.8468 9.664C59.7401 9.46133 59.5908 9.29067 59.3988 9.152C59.2068 9.01333 58.9775 8.90667 58.7108 8.832C58.4548 8.74667 58.1828 8.704 57.8948 8.704C57.1695 8.704 56.5988 8.93333 56.1828 9.392C55.7668 9.84 55.5588 10.432 55.5588 11.168V12.576C55.5588 13.312 55.7668 13.9093 56.1828 14.368C56.5988 14.816 57.1695 15.04 57.8948 15.04ZM74.9253 16L73.8053 12.704H69.2933L68.1733 16H66.8133L70.7173 4.832H72.4293L76.3333 16H74.9253ZM71.5813 6.08H71.5013L69.6133 11.52H73.4693L71.5813 6.08ZM80.5353 16.192C79.7673 16.192 79.122 16.048 78.5993 15.76C78.0873 15.4613 77.6446 15.0667 77.2713 14.576L78.1833 13.84C78.5033 14.2453 78.8606 14.56 79.2553 14.784C79.65 14.9973 80.1086 15.104 80.6313 15.104C81.1753 15.104 81.5966 14.9867 81.8953 14.752C82.2046 14.5173 82.3593 14.1867 82.3593 13.76C82.3593 13.44 82.2526 13.168 82.0393 12.944C81.8366 12.7093 81.4633 12.5493 80.9193 12.464L80.2633 12.368C79.8793 12.3147 79.5273 12.2347 79.2073 12.128C78.8873 12.0107 78.6046 11.8613 78.3593 11.68C78.1246 11.488 77.938 11.2533 77.7993 10.976C77.6713 10.6987 77.6073 10.368 77.6073 9.984C77.6073 9.57867 77.682 9.22667 77.8313 8.928C77.9806 8.61867 78.1833 8.36267 78.4393 8.16C78.706 7.95733 79.0206 7.808 79.3833 7.712C79.746 7.60533 80.1353 7.552 80.5513 7.552C81.2233 7.552 81.7833 7.66933 82.2313 7.904C82.69 8.13867 83.09 8.464 83.4313 8.88L82.5833 9.648C82.402 9.392 82.1353 9.16267 81.7833 8.96C81.4313 8.74667 80.9886 8.64 80.4553 8.64C79.922 8.64 79.5166 8.75733 79.2393 8.992C78.9726 9.216 78.8393 9.52533 78.8393 9.92C78.8393 10.3253 78.9726 10.6187 79.2393 10.8C79.5166 10.9813 79.9113 11.1147 80.4233 11.2L81.0633 11.296C81.9806 11.4347 82.6313 11.7013 83.0153 12.096C83.3993 12.48 83.5913 12.9867 83.5913 13.616C83.5913 14.416 83.3193 15.0453 82.7753 15.504C82.2313 15.9627 81.4846 16.192 80.5353 16.192ZM88.2384 16.192C87.4704 16.192 86.8251 16.048 86.3024 15.76C85.7904 15.4613 85.3478 15.0667 84.9744 14.576L85.8864 13.84C86.2064 14.2453 86.5638 14.56 86.9584 14.784C87.3531 14.9973 87.8118 15.104 88.3344 15.104C88.8784 15.104 89.2998 14.9867 89.5984 14.752C89.9078 14.5173 90.0624 14.1867 90.0624 13.76C90.0624 13.44 89.9558 13.168 89.7424 12.944C89.5398 12.7093 89.1664 12.5493 88.6224 12.464L87.9664 12.368C87.5824 12.3147 87.2304 12.2347 86.9104 12.128C86.5904 12.0107 86.3078 11.8613 86.0624 11.68C85.8278 11.488 85.6411 11.2533 85.5024 10.976C85.3744 10.6987 85.3104 10.368 85.3104 9.984C85.3104 9.57867 85.3851 9.22667 85.5344 8.928C85.6838 8.61867 85.8864 8.36267 86.1424 8.16C86.4091 7.95733 86.7238 7.808 87.0864 7.712C87.4491 7.60533 87.8384 7.552 88.2544 7.552C88.9264 7.552 89.4864 7.66933 89.9344 7.904C90.3931 8.13867 90.7931 8.464 91.1344 8.88L90.2864 9.648C90.1051 9.392 89.8384 9.16267 89.4864 8.96C89.1344 8.74667 88.6918 8.64 88.1584 8.64C87.6251 8.64 87.2198 8.75733 86.9424 8.992C86.6758 9.216 86.5424 9.52533 86.5424 9.92C86.5424 10.3253 86.6758 10.6187 86.9424 10.8C87.2198 10.9813 87.6144 11.1147 88.1264 11.2L88.7664 11.296C89.6838 11.4347 90.3344 11.7013 90.7184 12.096C91.1024 12.48 91.2944 12.9867 91.2944 13.616C91.2944 14.416 91.0224 15.0453 90.4784 15.504C89.9344 15.9627 89.1878 16.192 88.2384 16.192ZM94.1953 5.808C93.918 5.808 93.7153 5.744 93.5873 5.616C93.47 5.47733 93.4113 5.30133 93.4113 5.088V4.88C93.4113 4.66667 93.47 4.496 93.5873 4.368C93.7153 4.22933 93.918 4.16 94.1953 4.16C94.4726 4.16 94.67 4.22933 94.7873 4.368C94.9153 4.496 94.9793 4.66667 94.9793 4.88V5.088C94.9793 5.30133 94.9153 5.47733 94.7873 5.616C94.67 5.744 94.4726 5.808 94.1953 5.808ZM93.5553 7.744H94.8353V16H93.5553V7.744ZM100.035 16.192C99.2673 16.192 98.622 16.048 98.0993 15.76C97.5873 15.4613 97.1446 15.0667 96.7713 14.576L97.6833 13.84C98.0033 14.2453 98.3606 14.56 98.7553 14.784C99.15 14.9973 99.6086 15.104 100.131 15.104C100.675 15.104 101.097 14.9867 101.395 14.752C101.705 14.5173 101.859 14.1867 101.859 13.76C101.859 13.44 101.753 13.168 101.539 12.944C101.337 12.7093 100.963 12.5493 100.419 12.464L99.7633 12.368C99.3793 12.3147 99.0273 12.2347 98.7073 12.128C98.3873 12.0107 98.1046 11.8613 97.8593 11.68C97.6246 11.488 97.438 11.2533 97.2993 10.976C97.1713 10.6987 97.1073 10.368 97.1073 9.984C97.1073 9.57867 97.182 9.22667 97.3313 8.928C97.4806 8.61867 97.6833 8.36267 97.9393 8.16C98.206 7.95733 98.5206 7.808 98.8833 7.712C99.246 7.60533 99.6353 7.552 100.051 7.552C100.723 7.552 101.283 7.66933 101.731 7.904C102.19 8.13867 102.59 8.464 102.931 8.88L102.083 9.648C101.902 9.392 101.635 9.16267 101.283 8.96C100.931 8.74667 100.489 8.64 99.9553 8.64C99.422 8.64 99.0166 8.75733 98.7393 8.992C98.4726 9.216 98.3393 9.52533 98.3393 9.92C98.3393 10.3253 98.4726 10.6187 98.7393 10.8C99.0166 10.9813 99.4113 11.1147 99.9233 11.2L100.563 11.296C101.481 11.4347 102.131 11.7013 102.515 12.096C102.899 12.48 103.091 12.9867 103.091 13.616C103.091 14.416 102.819 15.0453 102.275 15.504C101.731 15.9627 100.985 16.192 100.035 16.192ZM107.067 16C106.619 16 106.277 15.8773 106.043 15.632C105.819 15.376 105.707 15.0453 105.707 14.64V8.864H104.347V7.744H105.115C105.392 7.744 105.579 7.69067 105.675 7.584C105.781 7.46667 105.835 7.26933 105.835 6.992V5.456H106.987V7.744H108.795V8.864H106.987V14.88H108.667V16H107.067ZM116.852 16C116.372 16 116.026 15.872 115.812 15.616C115.61 15.36 115.482 15.04 115.428 14.656H115.348C115.167 15.168 114.868 15.552 114.452 15.808C114.036 16.064 113.54 16.192 112.964 16.192C112.09 16.192 111.407 15.968 110.916 15.52C110.436 15.072 110.196 14.464 110.196 13.696C110.196 12.9173 110.479 12.32 111.044 11.904C111.62 11.488 112.511 11.28 113.716 11.28H115.348V10.464C115.348 9.87733 115.188 9.42933 114.868 9.12C114.548 8.81067 114.058 8.656 113.396 8.656C112.895 8.656 112.474 8.768 112.132 8.992C111.802 9.216 111.524 9.51467 111.3 9.888L110.532 9.168C110.756 8.72 111.114 8.34133 111.604 8.032C112.095 7.712 112.714 7.552 113.46 7.552C114.463 7.552 115.242 7.79733 115.796 8.288C116.351 8.77867 116.628 9.46133 116.628 10.336V14.88H117.572V16H116.852ZM113.172 15.104C113.492 15.104 113.786 15.0667 114.052 14.992C114.319 14.9173 114.548 14.8107 114.74 14.672C114.932 14.5333 115.082 14.3733 115.188 14.192C115.295 14.0107 115.348 13.8133 115.348 13.6V12.24H113.652C112.916 12.24 112.378 12.3467 112.036 12.56C111.706 12.7733 111.54 13.0827 111.54 13.488V13.824C111.54 14.2293 111.684 14.544 111.972 14.768C112.271 14.992 112.671 15.104 113.172 15.104ZM119.399 16V7.744H120.679V9.088H120.743C120.946 8.61867 121.228 8.24533 121.591 7.968C121.964 7.69067 122.46 7.552 123.079 7.552C123.932 7.552 124.604 7.82933 125.095 8.384C125.596 8.928 125.847 9.70133 125.847 10.704V16H124.567V10.928C124.567 9.44533 123.943 8.704 122.695 8.704C122.439 8.704 122.188 8.736 121.943 8.8C121.708 8.864 121.495 8.96 121.303 9.088C121.111 9.216 120.956 9.38133 120.839 9.584C120.732 9.776 120.679 10.0053 120.679 10.272V16H119.399ZM131.565 16.192C130.989 16.192 130.471 16.0907 130.013 15.888C129.554 15.6853 129.165 15.3973 128.845 15.024C128.535 14.6507 128.295 14.1973 128.125 13.664C127.965 13.1307 127.885 12.5333 127.885 11.872C127.885 11.2107 127.965 10.6133 128.125 10.08C128.295 9.54667 128.535 9.09333 128.845 8.72C129.165 8.34667 129.554 8.05867 130.013 7.856C130.471 7.65333 130.989 7.552 131.565 7.552C132.386 7.552 133.042 7.73333 133.533 8.096C134.034 8.448 134.407 8.912 134.653 9.488L133.581 10.032C133.431 9.60533 133.186 9.27467 132.845 9.04C132.503 8.80533 132.077 8.688 131.565 8.688C131.181 8.688 130.845 8.752 130.557 8.88C130.269 8.99733 130.029 9.168 129.837 9.392C129.645 9.60533 129.501 9.86667 129.405 10.176C129.309 10.4747 129.261 10.8053 129.261 11.168V12.576C129.261 13.3013 129.453 13.8987 129.837 14.368C130.231 14.8267 130.807 15.056 131.565 15.056C132.599 15.056 133.346 14.576 133.805 13.616L134.733 14.24C134.466 14.8373 134.066 15.312 133.533 15.664C133.01 16.016 132.354 16.192 131.565 16.192ZM139.55 16.192C138.985 16.192 138.473 16.0907 138.014 15.888C137.566 15.6853 137.177 15.3973 136.846 15.024C136.526 14.64 136.275 14.1867 136.094 13.664C135.923 13.1307 135.838 12.5333 135.838 11.872C135.838 11.2213 135.923 10.6293 136.094 10.096C136.275 9.56267 136.526 9.10933 136.846 8.736C137.177 8.352 137.566 8.05867 138.014 7.856C138.473 7.65333 138.985 7.552 139.55 7.552C140.105 7.552 140.601 7.65333 141.038 7.856C141.475 8.05867 141.849 8.34133 142.158 8.704C142.467 9.056 142.702 9.47733 142.862 9.968C143.033 10.4587 143.118 10.9973 143.118 11.584V12.192H137.182V12.576C137.182 12.928 137.235 13.2587 137.342 13.568C137.459 13.8667 137.619 14.128 137.822 14.352C138.035 14.576 138.291 14.752 138.59 14.88C138.899 15.008 139.246 15.072 139.63 15.072C140.153 15.072 140.606 14.9493 140.99 14.704C141.385 14.4587 141.689 14.1067 141.902 13.648L142.814 14.304C142.547 14.8693 142.131 15.328 141.566 15.68C141.001 16.0213 140.329 16.192 139.55 16.192ZM139.55 8.624C139.198 8.624 138.878 8.688 138.59 8.816C138.302 8.93333 138.051 9.104 137.838 9.328C137.635 9.552 137.475 9.81867 137.358 10.128C137.241 10.4267 137.182 10.7573 137.182 11.12V11.232H141.742V11.056C141.742 10.32 141.539 9.73333 141.134 9.296C140.739 8.848 140.211 8.624 139.55 8.624ZM146.731 12.672V10.048C147.606 10.0053 148.289 9.792 148.779 9.408C149.281 9.024 149.531 8.496 149.531 7.824V7.6C149.531 7.056 149.361 6.624 149.019 6.304C148.678 5.97333 148.219 5.808 147.643 5.808C147.025 5.808 146.529 5.984 146.155 6.336C145.793 6.688 145.547 7.136 145.419 7.68L144.235 7.232C144.331 6.89067 144.47 6.56533 144.651 6.256C144.843 5.936 145.078 5.65867 145.355 5.424C145.643 5.17867 145.979 4.98667 146.363 4.848C146.747 4.70933 147.19 4.64 147.691 4.64C148.683 4.64 149.467 4.912 150.043 5.456C150.619 6 150.907 6.736 150.907 7.664C150.907 8.176 150.817 8.624 150.635 9.008C150.465 9.38133 150.241 9.70133 149.963 9.968C149.686 10.2347 149.371 10.448 149.019 10.608C148.667 10.768 148.315 10.88 147.963 10.944V12.672H146.731ZM147.355 16.192C147.014 16.192 146.763 16.1067 146.603 15.936C146.454 15.7653 146.379 15.5413 146.379 15.264V15.056C146.379 14.7787 146.454 14.5547 146.603 14.384C146.763 14.2133 147.014 14.128 147.355 14.128C147.697 14.128 147.942 14.2133 148.091 14.384C148.251 14.5547 148.331 14.7787 148.331 15.056V15.264C148.331 15.5413 148.251 15.7653 148.091 15.936C147.942 16.1067 147.697 16.192 147.355 16.192Z" fill="#757C8D"/>
<g clip-path="url(#clip0_176_4778)">
<path d="M164.414 14.272H164.35C164.254 14.816 163.95 15.2747 163.438 15.648C162.936 16.0107 162.264 16.192 161.422 16.192C160.76 16.192 160.147 16.0693 159.582 15.824C159.027 15.5787 158.542 15.216 158.126 14.736C157.72 14.2453 157.4 13.6427 157.166 12.928C156.931 12.2133 156.814 11.3867 156.814 10.448C156.814 9.50933 156.931 8.68267 157.166 7.968C157.411 7.24267 157.752 6.63467 158.19 6.144C158.627 5.65333 159.15 5.28 159.758 5.024C160.366 4.768 161.043 4.64 161.79 4.64C162.792 4.64 163.646 4.85867 164.35 5.296C165.054 5.73333 165.608 6.36267 166.014 7.184L164.302 8.192C164.099 7.712 163.795 7.312 163.39 6.992C162.995 6.672 162.462 6.512 161.79 6.512C160.958 6.512 160.291 6.768 159.79 7.28C159.299 7.78133 159.054 8.528 159.054 9.52V11.312C159.054 12.2933 159.304 13.04 159.806 13.552C160.307 14.064 160.979 14.32 161.822 14.32C162.152 14.32 162.462 14.2827 162.75 14.208C163.038 14.1227 163.288 14 163.502 13.84C163.715 13.68 163.886 13.4827 164.014 13.248C164.142 13.0133 164.206 12.736 164.206 12.416V11.696H162.014V9.92H166.238V16H164.414V14.272ZM172.252 16.192C171.634 16.192 171.079 16.0907 170.588 15.888C170.108 15.6747 169.698 15.3813 169.356 15.008C169.026 14.624 168.77 14.1653 168.588 13.632C168.407 13.088 168.316 12.48 168.316 11.808C168.316 11.1467 168.402 10.5493 168.572 10.016C168.754 9.48267 169.01 9.02933 169.34 8.656C169.671 8.272 170.076 7.97867 170.556 7.776C171.036 7.56267 171.58 7.456 172.188 7.456C172.839 7.456 173.404 7.568 173.884 7.792C174.364 8.016 174.759 8.32 175.068 8.704C175.378 9.088 175.607 9.536 175.756 10.048C175.916 10.5493 175.996 11.088 175.996 11.664V12.336H170.444V12.544C170.444 13.152 170.615 13.6427 170.956 14.016C171.298 14.3787 171.804 14.56 172.476 14.56C172.988 14.56 173.404 14.4533 173.724 14.24C174.055 14.0267 174.348 13.7547 174.604 13.424L175.708 14.656C175.367 15.136 174.898 15.5147 174.3 15.792C173.714 16.0587 173.031 16.192 172.252 16.192ZM172.22 8.992C171.676 8.992 171.244 9.17333 170.924 9.536C170.604 9.89867 170.444 10.368 170.444 10.944V11.072H173.868V10.928C173.868 10.352 173.724 9.888 173.436 9.536C173.159 9.17333 172.754 8.992 172.22 8.992ZM180.726 16C180.022 16 179.483 15.8187 179.11 15.456C178.747 15.0827 178.566 14.5547 178.566 13.872V9.28H177.334V7.648H177.974C178.283 7.648 178.491 7.57867 178.598 7.44C178.715 7.29067 178.774 7.072 178.774 6.784V5.36H180.614V7.648H182.326V9.28H180.614V14.368H182.198V16H180.726ZM195.42 11.28H190.764V16H188.652V4.832H190.764V9.408H195.42V4.832H197.532V16H195.42V11.28ZM203.72 16.192C203.101 16.192 202.546 16.0907 202.056 15.888C201.576 15.6747 201.165 15.3813 200.824 15.008C200.493 14.624 200.237 14.1653 200.056 13.632C199.874 13.088 199.784 12.48 199.784 11.808C199.784 11.1467 199.869 10.5493 200.04 10.016C200.221 9.48267 200.477 9.02933 200.808 8.656C201.138 8.272 201.544 7.97867 202.024 7.776C202.504 7.56267 203.048 7.456 203.656 7.456C204.306 7.456 204.872 7.568 205.352 7.792C205.832 8.016 206.226 8.32 206.536 8.704C206.845 9.088 207.074 9.536 207.224 10.048C207.384 10.5493 207.464 11.088 207.464 11.664V12.336H201.912V12.544C201.912 13.152 202.082 13.6427 202.424 14.016C202.765 14.3787 203.272 14.56 203.944 14.56C204.456 14.56 204.872 14.4533 205.192 14.24C205.522 14.0267 205.816 13.7547 206.072 13.424L207.176 14.656C206.834 15.136 206.365 15.5147 205.768 15.792C205.181 16.0587 204.498 16.192 203.72 16.192ZM203.688 8.992C203.144 8.992 202.712 9.17333 202.392 9.536C202.072 9.89867 201.912 10.368 201.912 10.944V11.072H205.336V10.928C205.336 10.352 205.192 9.888 204.904 9.536C204.626 9.17333 204.221 8.992 203.688 8.992ZM211.634 16C210.93 16 210.412 15.824 210.082 15.472C209.751 15.12 209.586 14.624 209.586 13.984V4.16H211.634V14.368H212.738V16H211.634ZM214.609 7.648H216.657V9.024H216.721C216.87 8.544 217.153 8.16533 217.569 7.888C217.985 7.6 218.47 7.456 219.025 7.456C220.091 7.456 220.902 7.83467 221.457 8.592C222.022 9.33867 222.305 10.4107 222.305 11.808C222.305 13.216 222.022 14.2987 221.457 15.056C220.902 15.8133 220.091 16.192 219.025 16.192C218.47 16.192 217.985 16.048 217.569 15.76C217.163 15.472 216.881 15.088 216.721 14.608H216.657V19.2H214.609V7.648ZM218.369 14.496C218.902 14.496 219.334 14.32 219.665 13.968C219.995 13.616 220.161 13.1413 220.161 12.544V11.104C220.161 10.5067 219.995 10.032 219.665 9.68C219.334 9.31733 218.902 9.136 218.369 9.136C217.878 9.136 217.467 9.25867 217.137 9.504C216.817 9.74933 216.657 10.0747 216.657 10.48V13.136C216.657 13.5733 216.817 13.9093 217.137 14.144C217.467 14.3787 217.878 14.496 218.369 14.496Z" fill="#0052BD"/>
<path d="M155.982 17.904H213.201V19.312H155.982V17.904ZM218.064 17.904H223.025V19.312H218.064V17.904Z" fill="#0052BD"/>
</g>
<defs>
<clipPath id="clip0_176_4778">
<rect width="68" height="20" fill="white" transform="translate(155.5)"/>
</clipPath>
</defs>
</svg>
