<svg width="20" height="20" viewBox="0 0 20 20" fill="none" xmlns="http://www.w3.org/2000/svg">
<path fill-rule="evenodd" clip-rule="evenodd" d="M9.58589 2.0319C9.82235 1.8227 10.1777 1.8227 10.4142 2.0319C12.239 3.64642 14.6208 4.48703 17.0548 4.37565C17.3424 4.36249 17.6018 4.54751 17.683 4.82373C18.0846 6.18994 18.2075 7.62295 18.0443 9.03759C17.8812 10.4522 17.4354 11.8196 16.7333 13.0586C16.0312 14.2975 15.0873 15.3827 13.9576 16.2496C12.8278 17.1165 11.5354 17.7474 10.1569 18.105C10.054 18.1317 9.94602 18.1317 9.8431 18.105C8.4647 17.7474 7.17223 17.1165 6.04249 16.2496C4.91276 15.3827 3.96882 14.2975 3.26676 13.0586C2.5647 11.8196 2.11885 10.4522 1.9557 9.03759C1.79256 7.62295 1.91544 6.18994 2.31706 4.82373C2.39826 4.54751 2.65765 4.36249 2.94526 4.37565C5.37927 4.48703 7.76102 3.64642 9.58589 2.0319ZM3.39389 5.63545C3.1386 6.70071 3.07169 7.80373 3.19747 8.89438C3.34142 10.1426 3.73482 11.3491 4.35428 12.4423C4.97375 13.5355 5.80664 14.493 6.80346 15.2579C7.7573 15.9898 8.84261 16.5311 10 16.8529C11.1574 16.5311 12.2427 15.9898 13.1966 15.2579C14.1934 14.493 15.0263 13.5355 15.6458 12.4423C16.2652 11.3491 16.6586 10.1426 16.8026 8.89438C16.9284 7.80373 16.8614 6.70071 16.6062 5.63545C14.2053 5.63099 11.8762 4.81307 10 3.31612C8.12381 4.81307 5.79478 5.63099 3.39389 5.63545Z" fill="#929BB0"/>
</svg>
