<svg width="18" height="14" viewBox="0 0 18 14" fill="none" xmlns="http://www.w3.org/2000/svg">
<path fill-rule="evenodd" clip-rule="evenodd" d="M3.16667 1.7915C2.8904 1.7915 2.62545 1.90125 2.4301 2.0966C2.30832 2.21838 2.21981 2.3672 2.17041 2.52895L9 7.08201L15.8296 2.52895C15.7802 2.3672 15.6917 2.21838 15.5699 2.0966C15.3746 1.90125 15.1096 1.7915 14.8333 1.7915H3.16667ZM15.875 4.00099L9.34669 8.3532C9.13675 8.49316 8.86325 8.49316 8.65331 8.3532L2.125 4.00099V11.1665C2.125 11.4428 2.23475 11.7077 2.4301 11.9031C2.62545 12.0984 2.8904 12.2082 3.16667 12.2082H14.8333C15.1096 12.2082 15.3746 12.0984 15.5699 11.9031C15.7653 11.7077 15.875 11.4428 15.875 11.1665V4.00099ZM1.54621 1.21272C1.97598 0.782947 2.55888 0.541504 3.16667 0.541504H14.8333C15.4411 0.541504 16.024 0.782947 16.4538 1.21272C16.8836 1.64249 17.125 2.22538 17.125 2.83317V11.1665C17.125 11.7743 16.8836 12.3572 16.4538 12.787C16.024 13.2167 15.4411 13.4582 14.8333 13.4582H3.16667C2.55888 13.4582 1.97598 13.2167 1.54621 12.787C1.11644 12.3572 0.875 11.7743 0.875 11.1665V2.83317C0.875 2.22538 1.11644 1.64249 1.54621 1.21272Z" fill="#929BB0"/>
</svg>
