<svg width="142" height="53" viewBox="0 0 142 53" fill="none" xmlns="http://www.w3.org/2000/svg">
<path fill-rule="evenodd" clip-rule="evenodd" d="M19.7754 2.46523C19.5407 2.50431 19.1386 2.64811 18.9232 2.76999C18.4084 3.06123 18.0477 3.45118 17.7885 3.99664C17.549 4.50046 17.5521 4.47423 17.5402 6.13435L17.5297 7.59804L17.6459 7.61231C18.0595 7.66304 18.2458 7.69219 18.4362 7.73601C20.2509 8.15363 21.7039 9.56563 22.1714 11.3657C22.3245 11.9552 22.3324 12.0978 22.3324 14.2625V16.2358L22.5824 16.4829L22.8323 16.73H26.5685H30.3048L30.5721 16.5998C31.3753 16.2084 31.9065 15.5001 32.0512 14.6275C32.0913 14.3861 32.0947 13.9048 32.0874 9.52917L32.0794 4.6974L32.0162 4.46986C31.9402 4.1961 31.7647 3.81644 31.6064 3.5832C31.4579 3.36444 31.1303 3.03926 30.91 2.89179C30.6852 2.74137 30.3535 2.58876 30.0844 2.51188L29.8687 2.45026L24.8939 2.44576C22.069 2.44322 19.8571 2.45163 19.7754 2.46523ZM5.35907 16.8828C4.21044 17.0375 3.27665 17.9062 3.0425 19.0377C3.00445 19.2215 2.99982 19.7712 3.00001 24.0702C3.00014 27.2753 3.0096 28.9548 3.02818 29.0704C3.04358 29.1661 3.09651 29.362 3.14582 29.5057C3.47014 30.4512 4.34676 31.1618 5.34923 31.2919C5.50718 31.3124 7.02559 31.3188 10.4147 31.3134L15.2546 31.3056L15.5163 31.2338C16.4866 30.9677 17.2025 30.2492 17.4718 29.2712L17.5455 29.0035L17.5538 25.3779L17.562 21.7524L17.3661 21.5567L17.1703 21.361H15.1871C13.9685 21.361 13.1159 21.3502 12.9755 21.333C11.7853 21.1869 10.7661 20.6968 9.94172 19.8742C9.17073 19.1048 8.66682 18.0867 8.51463 16.991L8.49697 16.8638L6.96848 16.8678C6.12779 16.87 5.40356 16.8768 5.35907 16.8828ZM46.8959 21.6019C46.8144 21.6137 45.0002 21.6246 42.8644 21.626C39.038 21.6287 38.9782 21.6295 38.7819 21.6835C37.9413 21.9148 37.2382 22.5949 36.9429 23.4623L36.8791 23.6497L36.8606 27.5312C36.8504 29.666 36.831 31.9246 36.8175 32.5504C36.7952 33.5836 36.7875 33.7087 36.7343 33.9129C36.6161 34.3666 36.5739 34.4263 35.8984 35.095C35.2247 35.7618 35.1575 35.8086 34.7013 35.9296L34.4794 35.9884L29.5586 36.004C25.0548 36.0182 24.6219 36.0233 24.4496 36.0649C23.8683 36.2053 23.4641 36.4263 23.0733 36.8176C22.6599 37.2313 22.4205 37.6915 22.3195 38.2664C22.2838 38.4696 22.2785 39.1143 22.2785 43.2193C22.2785 46.4584 22.2876 48.0039 22.3077 48.1468C22.4574 49.2157 23.2248 50.07 24.3174 50.3842L24.5299 50.4453H29.5721H34.6142L34.8569 50.3703C35.8138 50.0744 36.4878 49.3905 36.7615 48.4377L36.823 48.2235L36.838 43.2579C36.8546 37.7457 36.8384 38.2066 37.03 37.797C37.1013 37.6445 37.1934 37.5415 37.7771 36.962C38.3609 36.3825 38.4646 36.291 38.6182 36.2202C39.031 36.03 38.5659 36.0461 44.1187 36.0301L49.1204 36.0157L49.3733 35.9423C50.3311 35.6642 51.0387 34.9576 51.2958 34.0226L51.3584 33.7951V28.7893V23.7836L51.2841 23.5484C50.9775 22.5781 50.2979 21.9142 49.3528 21.6616C49.0975 21.5933 49.0773 21.5922 48.0688 21.5864C47.5053 21.5831 46.9775 21.5902 46.8959 21.6019ZM18.099 33.4679C17.7199 33.6576 18.0387 33.6469 12.7598 33.6474C9.62919 33.6477 7.92185 33.6574 7.77158 33.6757C7.31466 33.7315 6.95376 33.8637 6.57441 34.1142C6.32994 34.2757 5.97958 34.6231 5.82152 34.8607C5.67263 35.0846 5.51395 35.434 5.44541 35.689L5.38604 35.9098V40.9022V45.8946L5.46145 46.1355C5.75729 47.0807 6.40126 47.72 7.35435 48.0146L7.59702 48.0897H12.6257H17.6543L17.8835 48.0277C18.1667 47.9512 18.5628 47.7677 18.7828 47.6111C18.8739 47.5462 19.0409 47.3984 19.1538 47.2828C19.5819 46.8442 19.8294 46.3294 19.9046 45.7213C19.9231 45.572 19.9328 43.8754 19.9329 40.7557C19.9331 37.5799 19.9424 35.9595 19.9614 35.8429C19.9769 35.7472 20.0259 35.5613 20.0702 35.4297C20.1451 35.2074 20.1474 35.1887 20.1039 35.1645C20.0782 35.1502 19.9594 35.0725 19.8399 34.9919C19.2782 34.6129 18.8258 34.1574 18.452 33.5943L18.3009 33.3668L18.099 33.4679Z" fill="url(#paint0_linear_521_7892)"/>
<path d="M34.78 6.36235C35.1767 5.57789 35.8899 5.0374 36.7288 4.88559C36.8989 4.85481 37.7678 4.84932 41.8678 4.8531L46.8021 4.85762L47.009 4.91624C47.5188 5.06063 47.9037 5.28108 48.2605 5.63295C48.6058 5.97348 48.8389 6.36548 48.9773 6.83851L49.04 7.05266L49.0475 11.9781C49.0542 16.3704 49.0504 16.9263 49.0126 17.113C48.8225 18.0514 48.1409 18.8355 47.2469 19.1439C46.8198 19.2912 47.17 19.2815 41.6925 19.2989C37.0188 19.3137 36.6237 19.3184 36.4617 19.3612C35.9695 19.491 35.7971 19.6027 35.2607 20.1387C34.7867 20.6124 34.7006 20.7381 34.5941 21.1113L34.5344 21.3204L34.5195 26.2994L34.5047 31.2784L34.4438 31.4926C34.3527 31.8129 34.1206 32.2615 33.9146 32.5155C33.5099 33.0142 32.9112 33.3609 32.2586 33.4743C31.912 33.5346 22.5605 33.5332 22.2118 33.4728C21.6977 33.3838 21.2126 33.1382 20.8176 32.7669C20.4344 32.4067 20.1888 31.9976 20.0448 31.4795L19.974 31.2249L19.9599 26.2325L19.9457 21.2401L19.8848 21.044C19.7578 20.6347 19.7072 20.5663 19.0473 19.9117C18.1017 18.9737 18.3393 19.0325 15.497 19.0321C14.2216 19.0318 13.3338 19.021 13.1963 19.0038C12.9238 18.9699 12.5959 18.87 12.343 18.7438C11.6238 18.385 11.126 17.7748 10.9075 16.9839L10.8335 16.7162V14.481V12.2458L10.9071 11.98C11.1795 10.9966 11.8949 10.2859 12.8823 10.0177L13.1519 9.9445L15.3764 9.9441C17.1151 9.94378 17.6362 9.95138 17.7626 9.97887C18.3446 10.1054 18.7956 10.3469 19.192 10.7444C19.5736 11.1269 19.8067 11.5549 19.937 12.112C19.9587 12.2046 19.9738 12.9513 19.9862 14.5345C20.006 17.0615 19.9968 16.9311 20.1828 17.3185C20.2546 17.4682 20.357 17.583 20.9154 18.1401C21.6187 18.8418 21.6778 18.885 22.0902 18.9973C22.2555 19.0424 22.5506 19.0451 27.2537 19.0451C32.8019 19.0451 32.382 19.0586 32.792 18.8672C32.947 18.7949 33.0537 18.7015 33.621 18.1418C34.3191 17.453 34.3724 17.3828 34.4523 17.0461C34.4871 16.8995 34.4926 16.2539 34.493 12.2324C34.4932 9.30432 34.5035 7.4823 34.5207 7.30193C34.5531 6.9631 34.6454 6.6287 34.78 6.36235Z" fill="#0052BD"/>
<path d="M113.858 2.94531H138.728V9.16288H129.55V37.4873H123.036V9.16288H113.858V2.94531Z" fill="#1D1F23"/>
<path d="M106.619 30.0855H94.8744L93.1967 37.4873H86.387L94.6277 2.94531H106.865L115.106 37.4873H108.296L106.619 30.0855ZM96.2561 23.8679H105.188L101.191 6.20213H100.302L96.2561 23.8679Z" fill="#1D1F23"/>
<path d="M69.2329 24.4601V37.4873H62.7192V2.94531H76.24C78.0164 2.94531 79.5626 3.24139 80.8785 3.83354C82.1944 4.39279 83.28 5.14942 84.1353 6.10344C85.0235 7.02456 85.6815 8.09372 86.1091 9.31091C86.5697 10.4952 86.8 11.7124 86.8 12.9625V14.1468C86.8 15.4298 86.5697 16.6963 86.1091 17.9464C85.6815 19.1636 85.0235 20.2657 84.1353 21.2526C83.28 22.2066 82.1944 22.9797 80.8785 23.5718C79.5626 24.164 78.0164 24.4601 76.24 24.4601H69.2329ZM69.2329 18.2425H75.5985C77.046 18.2425 78.1809 17.8477 79.0033 17.0582C79.8587 16.2687 80.2863 15.2489 80.2863 13.9988V13.4066C80.2863 12.1565 79.8587 11.1367 79.0033 10.3472C78.1809 9.55765 77.046 9.16288 75.5985 9.16288H69.2329V18.2425Z" fill="#1D1F23"/>
<path d="M134.693 48.2723L134.812 47.6671L137.957 44.1645H135.518L135.637 43.541H138.929L138.81 44.1462L135.665 47.6488H138.232L138.113 48.2723H134.693Z" fill="#1D1F23"/>
<path d="M129.857 48.2725L130.811 43.5412H131.517L131.324 44.4764H131.37C131.535 44.1219 131.731 43.859 131.957 43.6879C132.189 43.5167 132.477 43.4312 132.819 43.4312C133.229 43.4312 133.534 43.5473 133.736 43.7796C133.938 44.0119 134.039 44.3328 134.039 44.7423C134.039 44.8279 134.032 44.9227 134.02 45.0266C134.014 45.1305 133.999 45.2405 133.974 45.3567L133.516 47.649H134.185L134.066 48.2725H133.397C133.219 48.2725 133.076 48.2297 132.966 48.1441C132.862 48.0585 132.81 47.924 132.81 47.7406C132.81 47.7101 132.81 47.6826 132.81 47.6581C132.81 47.6337 132.816 47.597 132.828 47.5481L133.268 45.3567C133.287 45.265 133.299 45.1763 133.305 45.0908C133.311 44.9991 133.314 44.9257 133.314 44.8707C133.314 44.6017 133.256 44.4031 133.14 44.2747C133.03 44.1402 132.847 44.073 132.59 44.073C132.26 44.073 131.969 44.1983 131.719 44.4489C131.56 44.6079 131.425 44.7974 131.315 45.0174C131.205 45.2375 131.132 45.4423 131.095 45.6317L130.563 48.2725H129.857Z" fill="#1D1F23"/>
<path d="M127.082 48.3825C126.513 48.3825 126.073 48.2144 125.761 47.8782C125.45 47.542 125.294 47.0499 125.294 46.402C125.294 46.0107 125.352 45.6379 125.468 45.2833C125.59 44.9227 125.758 44.6048 125.972 44.3297C126.192 44.0547 126.452 43.8377 126.752 43.6787C127.057 43.5137 127.396 43.4312 127.769 43.4312C127.971 43.4312 128.164 43.4587 128.347 43.5137C128.53 43.5626 128.692 43.639 128.833 43.7429C128.974 43.8468 129.084 43.9782 129.163 44.1372C129.249 44.2961 129.291 44.4825 129.291 44.6965C129.291 45.2161 129.022 45.6012 128.485 45.8518C127.953 46.1024 127.134 46.2339 126.027 46.2461C126.015 46.3133 126.006 46.3836 126 46.457C126 46.5242 126 46.5823 126 46.6312C126 46.9674 126.094 47.2394 126.284 47.4472C126.48 47.649 126.761 47.7498 127.128 47.7498C127.427 47.7498 127.696 47.6826 127.934 47.5481C128.179 47.4075 128.393 47.2241 128.576 46.9979L129.035 47.4106C128.741 47.7712 128.426 48.0249 128.09 48.1716C127.76 48.3122 127.424 48.3825 127.082 48.3825ZM127.696 44.0363C127.513 44.0363 127.335 44.0699 127.164 44.1372C126.999 44.2044 126.849 44.2992 126.715 44.4214C126.587 44.5376 126.473 44.6843 126.376 44.8615C126.284 45.0327 126.217 45.2222 126.174 45.43L126.119 45.6959C126.626 45.6776 127.039 45.647 127.357 45.6042C127.675 45.5553 127.922 45.4912 128.099 45.4117C128.283 45.3261 128.405 45.2252 128.466 45.1091C128.533 44.993 128.567 44.8524 128.567 44.6873C128.567 44.559 128.543 44.455 128.494 44.3756C128.445 44.29 128.381 44.2228 128.301 44.1739C128.222 44.125 128.127 44.0913 128.017 44.073C127.913 44.0485 127.806 44.0363 127.696 44.0363Z" fill="#1D1F23"/>
<path d="M122.594 48.3825C122.325 48.3825 122.083 48.3366 121.869 48.245C121.662 48.1533 121.484 48.0218 121.338 47.8507C121.191 47.6795 121.078 47.4778 120.998 47.2455C120.919 47.0071 120.879 46.7412 120.879 46.4478C120.879 46.0382 120.931 45.6501 121.035 45.2833C121.145 44.9166 121.301 44.5956 121.503 44.3206C121.704 44.0455 121.946 43.8285 122.227 43.6695C122.514 43.5106 122.838 43.4312 123.199 43.4312C123.621 43.4312 123.963 43.5351 124.226 43.7429C124.495 43.9507 124.675 44.2166 124.767 44.5406L124.18 44.8065C124.021 44.3114 123.688 44.0638 123.181 44.0638C122.802 44.0638 122.493 44.183 122.255 44.4214C122.022 44.6598 121.863 44.9899 121.778 45.4117L121.622 46.1819C121.61 46.2491 121.6 46.3225 121.594 46.402C121.588 46.4753 121.585 46.5395 121.585 46.5945C121.585 46.9368 121.674 47.215 121.851 47.4289C122.028 47.6428 122.3 47.7498 122.667 47.7498C122.899 47.7498 123.11 47.6856 123.3 47.5573C123.495 47.4228 123.688 47.1783 123.877 46.8237L124.437 47.0988C124.241 47.5084 123.987 47.8262 123.676 48.0524C123.364 48.2725 123.003 48.3825 122.594 48.3825Z" fill="#1D1F23"/>
<path d="M117.216 43.541L116.629 46.4568C116.611 46.5485 116.599 46.6402 116.592 46.7319C116.586 46.8175 116.583 46.8878 116.583 46.9428C116.583 47.2056 116.635 47.4043 116.739 47.5388C116.849 47.6732 117.033 47.7405 117.289 47.7405C117.613 47.7405 117.897 47.6152 118.142 47.3645C118.313 47.1873 118.451 46.9917 118.555 46.7777C118.659 46.5577 118.729 46.359 118.766 46.1817L119.297 43.541H120.003L119.178 47.6488H119.847L119.728 48.2723H119.086C118.885 48.2723 118.732 48.2203 118.628 48.1164C118.53 48.0064 118.481 47.8658 118.481 47.6946C118.481 47.6335 118.493 47.5449 118.518 47.4287L118.536 47.337H118.49C118.325 47.6977 118.13 47.9636 117.904 48.1348C117.677 48.2998 117.399 48.3823 117.069 48.3823C116.666 48.3823 116.363 48.2662 116.161 48.0339C115.96 47.8016 115.859 47.4807 115.859 47.0711C115.859 46.9856 115.862 46.8908 115.868 46.7869C115.88 46.683 115.899 46.5729 115.923 46.4568L116.51 43.541H117.216Z" fill="#1D1F23"/>
<path d="M111.287 48.2726L112.571 41.8726H113.313L112.167 47.6124H114.799L114.671 48.2726H111.287Z" fill="#1D1F23"/>
<path d="M108.337 43.541H109.089L105.889 49.3451C105.736 49.6202 105.586 49.8158 105.44 49.9319C105.299 50.0481 105.11 50.1061 104.871 50.1061H104.138L104.257 49.501H105.11L105.696 48.419L104.945 43.541H105.632L105.981 45.8791L106.173 47.6029H106.219L107.072 45.8791L108.337 43.541Z" fill="#1D1F23"/>
<path d="M100.949 41.4873H101.655L101.032 44.5681H101.059C101.255 44.1708 101.472 43.8835 101.71 43.7062C101.949 43.5229 102.242 43.4312 102.591 43.4312C103.025 43.4312 103.373 43.5932 103.636 43.9171C103.899 44.235 104.03 44.6751 104.03 45.2375C104.03 45.5859 103.981 45.9466 103.884 46.3194C103.792 46.6862 103.651 47.0255 103.462 47.3372C103.272 47.6429 103.031 47.8935 102.737 48.0891C102.45 48.2847 102.111 48.3825 101.72 48.3825C101.579 48.3825 101.442 48.3642 101.307 48.3275C101.173 48.2908 101.05 48.2358 100.94 48.1624C100.83 48.0891 100.736 47.9974 100.656 47.8874C100.577 47.7773 100.519 47.649 100.482 47.5023H100.445L100.289 48.2725H99.5833L100.949 41.4873ZM101.655 47.7407C102.041 47.7407 102.358 47.6153 102.609 47.3647C102.86 47.1141 103.031 46.7596 103.123 46.3011L103.26 45.6134C103.291 45.4423 103.306 45.2864 103.306 45.1458C103.306 44.834 103.233 44.5773 103.086 44.3756C102.945 44.1739 102.716 44.073 102.398 44.073C102.19 44.073 102.007 44.1158 101.848 44.2014C101.695 44.2869 101.549 44.4 101.408 44.5406C101.255 44.6934 101.13 44.8615 101.032 45.0449C100.934 45.2283 100.861 45.4392 100.812 45.6776L100.619 46.6404C100.589 46.7871 100.586 46.9277 100.61 47.0621C100.635 47.1966 100.69 47.3158 100.775 47.4197C100.861 47.5175 100.974 47.597 101.114 47.6581C101.261 47.7132 101.442 47.7407 101.655 47.7407Z" fill="#1D1F23"/>
<path d="M95.7475 48.2725C95.5397 48.2725 95.3838 48.2205 95.2799 48.1166C95.1821 48.0127 95.1332 47.8751 95.1332 47.704C95.1332 47.6306 95.1424 47.5481 95.1607 47.4564L95.2066 47.2455H95.1791C94.9834 47.6429 94.7664 47.9332 94.528 48.1166C94.2896 48.2939 93.9962 48.3825 93.6478 48.3825C93.2138 48.3825 92.8654 48.2236 92.6025 47.9057C92.3397 47.5817 92.2083 47.1386 92.2083 46.5762C92.2083 46.2278 92.2541 45.8702 92.3458 45.5034C92.4436 45.1305 92.5872 44.7913 92.7767 44.4856C92.9662 44.1739 93.2046 43.9202 93.4919 43.7246C93.7853 43.529 94.1277 43.4312 94.5189 43.4312C94.6595 43.4312 94.797 43.4495 94.9315 43.4862C95.066 43.5229 95.1882 43.5779 95.2983 43.6512C95.4083 43.7246 95.503 43.8163 95.5825 43.9263C95.662 44.0363 95.72 44.1647 95.7567 44.3114H95.7934L96.3619 41.4873H97.0679L95.8301 47.649H96.4994L96.3802 48.2725H95.7475ZM93.8404 47.7407C94.0482 47.7407 94.2285 47.6979 94.3813 47.6123C94.5403 47.5267 94.69 47.4136 94.8306 47.273C94.9834 47.1202 95.1088 46.9521 95.2066 46.7687C95.3044 46.5853 95.3777 46.3745 95.4266 46.1361L95.6192 45.1733C95.6497 45.0266 95.6528 44.8891 95.6283 44.7607C95.6039 44.6262 95.5489 44.5101 95.4633 44.4123C95.3777 44.3083 95.2616 44.2258 95.1149 44.1647C94.9682 44.1036 94.7909 44.073 94.5831 44.073C94.198 44.073 93.8801 44.1983 93.6295 44.4489C93.3788 44.6996 93.2077 45.0541 93.116 45.5126L92.9785 46.2002C92.9479 46.3714 92.9326 46.5273 92.9326 46.6679C92.9326 46.9796 93.0029 47.2364 93.1435 47.4381C93.2902 47.6398 93.5225 47.7407 93.8404 47.7407Z" fill="#1D1F23"/>
<path d="M89.2948 48.3825C88.7263 48.3825 88.2862 48.2144 87.9745 47.8782C87.6627 47.542 87.5068 47.0499 87.5068 46.402C87.5068 46.0107 87.5649 45.6379 87.6811 45.2833C87.8033 44.9227 87.9714 44.6048 88.1854 44.3297C88.4054 44.0547 88.6652 43.8377 88.9647 43.6787C89.2704 43.5137 89.6096 43.4312 89.9825 43.4312C90.1842 43.4312 90.3768 43.4587 90.5602 43.5137C90.7435 43.5626 90.9055 43.639 91.0461 43.7429C91.1867 43.8468 91.2967 43.9782 91.3762 44.1372C91.4618 44.2961 91.5046 44.4825 91.5046 44.6965C91.5046 45.2161 91.2356 45.6012 90.6977 45.8518C90.1659 46.1024 89.3468 46.2339 88.2404 46.2461C88.2281 46.3133 88.219 46.3836 88.2129 46.457C88.2129 46.5242 88.2129 46.5823 88.2129 46.6312C88.2129 46.9674 88.3076 47.2394 88.4971 47.4472C88.6927 47.649 88.9739 47.7498 89.3407 47.7498C89.6402 47.7498 89.9091 47.6826 90.1475 47.5481C90.3921 47.4075 90.606 47.2241 90.7894 46.9979L91.2478 47.4106C90.9544 47.7712 90.6396 48.0249 90.3034 48.1716C89.9733 48.3122 89.6371 48.3825 89.2948 48.3825ZM89.9091 44.0363C89.7258 44.0363 89.5485 44.0699 89.3773 44.1372C89.2123 44.2044 89.0625 44.2992 88.9281 44.4214C88.7997 44.5376 88.6866 44.6843 88.5888 44.8615C88.4971 45.0327 88.4299 45.2222 88.3871 45.43L88.3321 45.6959C88.8394 45.6776 89.252 45.647 89.5699 45.6042C89.8878 45.5553 90.1353 45.4912 90.3126 45.4117C90.496 45.3261 90.6182 45.2252 90.6794 45.1091C90.7466 44.993 90.7802 44.8524 90.7802 44.6873C90.7802 44.559 90.7558 44.455 90.7069 44.3756C90.658 44.29 90.5938 44.2228 90.5143 44.1739C90.4348 44.125 90.3401 44.0913 90.2301 44.073C90.1262 44.0485 90.0192 44.0363 89.9091 44.0363Z" fill="#1D1F23"/>
<path d="M84.0923 48.2723L85.0459 43.541H85.7519L85.5502 44.4854H85.596C85.6572 44.3693 85.7305 44.2562 85.8161 44.1462C85.9017 44.03 85.9995 43.9292 86.1095 43.8436C86.2256 43.7519 86.3571 43.6786 86.5038 43.6235C86.6505 43.5685 86.8216 43.541 87.0172 43.541H87.3107L87.1731 44.2654H86.843C86.623 44.2654 86.4274 44.299 86.2562 44.3662C86.0912 44.4274 85.9475 44.5129 85.8253 44.623C85.703 44.733 85.6021 44.8614 85.5227 45.0081C85.4493 45.1487 85.3974 45.2984 85.3668 45.4574L84.7983 48.2723H84.0923Z" fill="#1D1F23"/>
<path d="M81.3165 48.3825C80.7481 48.3825 80.3079 48.2144 79.9962 47.8782C79.6844 47.542 79.5286 47.0499 79.5286 46.402C79.5286 46.0107 79.5866 45.6379 79.7028 45.2833C79.825 44.9227 79.9931 44.6048 80.2071 44.3297C80.4271 44.0547 80.6869 43.8377 80.9865 43.6787C81.2921 43.5137 81.6314 43.4312 82.0042 43.4312C82.206 43.4312 82.3985 43.4587 82.5819 43.5137C82.7653 43.5626 82.9273 43.639 83.0679 43.7429C83.2084 43.8468 83.3185 43.9782 83.3979 44.1372C83.4835 44.2961 83.5263 44.4825 83.5263 44.6965C83.5263 45.2161 83.2573 45.6012 82.7194 45.8518C82.1876 46.1024 81.3685 46.2339 80.2621 46.2461C80.2499 46.3133 80.2407 46.3836 80.2346 46.457C80.2346 46.5242 80.2346 46.5823 80.2346 46.6312C80.2346 46.9674 80.3293 47.2394 80.5188 47.4472C80.7144 47.649 80.9956 47.7498 81.3624 47.7498C81.6619 47.7498 81.9309 47.6826 82.1693 47.5481C82.4138 47.4075 82.6277 47.2241 82.8111 46.9979L83.2696 47.4106C82.9762 47.7712 82.6614 48.0249 82.3252 48.1716C81.9951 48.3122 81.6589 48.3825 81.3165 48.3825ZM81.9309 44.0363C81.7475 44.0363 81.5702 44.0699 81.3991 44.1372C81.234 44.2044 81.0843 44.2992 80.9498 44.4214C80.8214 44.5376 80.7083 44.6843 80.6105 44.8615C80.5188 45.0327 80.4516 45.2222 80.4088 45.43L80.3538 45.6959C80.8611 45.6776 81.2738 45.647 81.5916 45.6042C81.9095 45.5553 82.1571 45.4912 82.3343 45.4117C82.5177 45.3261 82.64 45.2252 82.7011 45.1091C82.7683 44.993 82.8019 44.8524 82.8019 44.6873C82.8019 44.559 82.7775 44.455 82.7286 44.3756C82.6797 44.29 82.6155 44.2228 82.536 44.1739C82.4566 44.125 82.3618 44.0913 82.2518 44.073C82.1479 44.0485 82.0409 44.0363 81.9309 44.0363Z" fill="#1D1F23"/>
<path d="M73.1501 43.541H73.8287L73.9112 45.8425L73.9662 47.5938H74.012L74.7364 46.0442L75.9101 43.541H76.5977L76.7995 45.925L76.9095 47.5571H76.9553L77.6522 45.9617L78.725 43.541H79.4127L77.2579 48.2723H76.4052L76.176 45.7141L76.1118 44.5038H76.0659L75.525 45.7141L74.3055 48.2723H73.4069L73.1501 43.541Z" fill="#1D1F23"/>
<path d="M69.7726 48.3825C69.522 48.3825 69.2927 48.3428 69.0849 48.2633C68.8771 48.1777 68.6968 48.0555 68.5439 47.8965C68.3972 47.7315 68.2811 47.5298 68.1955 47.2914C68.1099 47.0469 68.0671 46.7626 68.0671 46.4386C68.0671 46.0413 68.1252 45.6623 68.2414 45.3017C68.3636 44.9349 68.5317 44.614 68.7457 44.3389C68.9596 44.0638 69.2163 43.8438 69.5159 43.6787C69.8154 43.5137 70.1455 43.4312 70.5061 43.4312C70.7506 43.4312 70.9768 43.4739 71.1846 43.5595C71.3986 43.639 71.5789 43.7612 71.7256 43.9263C71.8784 44.0852 71.9976 44.2869 72.0832 44.5314C72.1688 44.776 72.2116 45.0571 72.2116 45.375C72.2116 45.7723 72.1505 46.1544 72.0282 46.5212C71.9121 46.8818 71.747 47.1997 71.5331 47.4747C71.3191 47.7498 71.0624 47.9699 70.7629 48.1349C70.4633 48.3 70.1333 48.3825 69.7726 48.3825ZM69.8643 47.7498C70.2066 47.7498 70.5122 47.6245 70.7812 47.3739C71.0502 47.1233 71.2336 46.7565 71.3314 46.2736L71.4689 45.5859C71.4995 45.4331 71.5147 45.2955 71.5147 45.1733C71.5147 44.8432 71.42 44.5773 71.2305 44.3756C71.0471 44.1677 70.7751 44.0638 70.4144 44.0638C70.0721 44.0638 69.7665 44.1891 69.4975 44.4398C69.2286 44.6904 69.0452 45.0571 68.9474 45.5401L68.8098 46.2277C68.7793 46.3806 68.764 46.5181 68.764 46.6404C68.764 46.9704 68.8557 47.2394 69.0391 47.4472C69.2286 47.649 69.5036 47.7498 69.8643 47.7498Z" fill="#1D1F23"/>
<path d="M62.7192 48.2726L64.0029 41.8726H66.286C66.5672 41.8726 66.8087 41.9123 67.0104 41.9918C67.2121 42.0651 67.3772 42.1721 67.5055 42.3127C67.6339 42.4472 67.7256 42.6091 67.7806 42.7986C67.8417 42.982 67.8723 43.1837 67.8723 43.4038C67.8723 43.7033 67.8203 43.9845 67.7164 44.2474C67.6186 44.5041 67.478 44.7303 67.2946 44.9259C67.1113 45.1154 66.8851 45.2651 66.6161 45.3752C66.3533 45.4852 66.0568 45.5402 65.7267 45.5402H64.0121L63.4619 48.2726H62.7192ZM64.1496 44.88H65.8367C66.1424 44.88 66.3961 44.8036 66.5978 44.6508C66.7995 44.4919 66.9309 44.2596 66.9921 43.954C67.0348 43.7461 67.0624 43.5994 67.0746 43.5138C67.0929 43.4283 67.1021 43.3488 67.1021 43.2754C67.1021 43.0493 67.0379 42.8689 66.9095 42.7345C66.7812 42.6 66.555 42.5327 66.231 42.5327H64.6081L64.1496 44.88Z" fill="#1D1F23"/>
<defs>
<linearGradient id="paint0_linear_521_7892" x1="51.3021" y1="50.4453" x2="9.24616" y2="-2.47398" gradientUnits="userSpaceOnUse">
<stop stop-color="#0052BD"/>
<stop offset="1" stop-color="#57C4FF"/>
</linearGradient>
</defs>
</svg>
