<svg width="144" height="19" viewBox="0 0 144 19" fill="none" xmlns="http://www.w3.org/2000/svg">
<path d="M12.75 2.95023C13.8812 3.60337 14.8222 4.54063 15.4799 5.66921C16.1375 6.79779 16.489 8.07856 16.4996 9.38474C16.5101 10.6909 16.1794 11.9772 15.54 13.1163C14.9007 14.2553 13.9749 15.2076 12.8544 15.879C11.7339 16.5503 10.4575 16.9174 9.15157 16.9438C7.84562 16.9702 6.55541 16.6551 5.40867 16.0297C4.26192 15.4042 3.2984 14.4901 2.6135 13.3779C1.9286 12.2656 1.54606 10.9938 1.50375 9.68823L1.5 9.44523L1.50375 9.20223C1.54575 7.90698 1.92266 6.6447 2.59773 5.53848C3.2728 4.43225 4.22299 3.51982 5.35567 2.89014C6.48835 2.26047 7.76486 1.93503 9.06075 1.94556C10.3566 1.95609 11.6277 2.30223 12.75 2.95023ZM9.0075 11.6952L8.91225 11.7005C8.72996 11.7222 8.56196 11.8099 8.44006 11.9472C8.31816 12.0845 8.25084 12.2617 8.25084 12.4452C8.25084 12.6288 8.31816 12.806 8.44006 12.9433C8.56196 13.0805 8.72996 13.1683 8.91225 13.19L9 13.1952L9.09525 13.19C9.27754 13.1683 9.44554 13.0805 9.56744 12.9433C9.68934 12.806 9.75666 12.6288 9.75666 12.4452C9.75666 12.2617 9.68934 12.0845 9.56744 11.9472C9.44554 11.8099 9.27754 11.7222 9.09525 11.7005L9.0075 11.6952ZM9 5.69523C8.8163 5.69526 8.639 5.7627 8.50172 5.88477C8.36444 6.00684 8.27674 6.17504 8.25525 6.35748L8.25 6.44523V9.44523L8.25525 9.53298C8.27693 9.71527 8.36472 9.88327 8.50197 10.0052C8.63923 10.1271 8.81643 10.1944 9 10.1944C9.18357 10.1944 9.36077 10.1271 9.49803 10.0052C9.63528 9.88327 9.72307 9.71527 9.74475 9.53298L9.75 9.44523V6.44523L9.74475 6.35748C9.72326 6.17504 9.63556 6.00684 9.49828 5.88477C9.361 5.7627 9.1837 5.69526 9 5.69523Z" fill="#E23822"/>
<path d="M22.84 14.4453V13.4653H24.212V5.65331H22.84V4.67331H26.76V5.65331H25.388V13.4653H26.76V14.4453H22.84ZM28.7955 14.4453V7.22131H29.9155V8.39731H29.9715C30.1488 7.98665 30.3961 7.65998 30.7135 7.41731C31.0401 7.17465 31.4741 7.05331 32.0155 7.05331C32.7621 7.05331 33.3501 7.29598 33.7795 7.78131C34.2181 8.25731 34.4375 8.93398 34.4375 9.81131V14.4453H33.3175V10.0073C33.3175 8.70998 32.7715 8.06131 31.6795 8.06131C31.4555 8.06131 31.2361 8.08931 31.0215 8.14531C30.8161 8.20131 30.6295 8.28531 30.4615 8.39731C30.2935 8.50931 30.1581 8.65398 30.0555 8.83131C29.9621 8.99931 29.9155 9.19998 29.9155 9.43331V14.4453H28.7955ZM39.4405 14.6133C38.9365 14.6133 38.4838 14.5246 38.0825 14.3473C37.6812 14.17 37.3405 13.918 37.0605 13.5913C36.7898 13.2646 36.5798 12.868 36.4305 12.4013C36.2905 11.9346 36.2205 11.412 36.2205 10.8333C36.2205 10.2546 36.2905 9.73198 36.4305 9.26531C36.5798 8.79865 36.7898 8.40198 37.0605 8.07531C37.3405 7.74865 37.6812 7.49665 38.0825 7.31931C38.4838 7.14198 38.9365 7.05331 39.4405 7.05331C40.1592 7.05331 40.7332 7.21198 41.1625 7.52931C41.6012 7.83731 41.9278 8.24331 42.1425 8.74731L41.2045 9.22331C41.0738 8.84998 40.8592 8.56065 40.5605 8.35531C40.2618 8.14998 39.8885 8.04731 39.4405 8.04731C39.1045 8.04731 38.8105 8.10331 38.5585 8.21531C38.3065 8.31798 38.0965 8.46731 37.9285 8.66331C37.7605 8.84998 37.6345 9.07865 37.5505 9.34931C37.4665 9.61065 37.4245 9.89998 37.4245 10.2173V11.4493C37.4245 12.084 37.5925 12.6066 37.9285 13.0173C38.2738 13.4186 38.7778 13.6193 39.4405 13.6193C40.3458 13.6193 40.9992 13.1993 41.4005 12.3593L42.2125 12.9053C41.9792 13.428 41.6292 13.8433 41.1625 14.1513C40.7052 14.4593 40.1312 14.6133 39.4405 14.6133ZM46.4415 14.6133C45.9562 14.6133 45.5128 14.5246 45.1115 14.3473C44.7102 14.17 44.3648 13.918 44.0755 13.5913C43.7955 13.2553 43.5762 12.8586 43.4175 12.4013C43.2588 11.9346 43.1795 11.412 43.1795 10.8333C43.1795 10.264 43.2588 9.74598 43.4175 9.27931C43.5762 8.81265 43.7955 8.41598 44.0755 8.08931C44.3648 7.75331 44.7102 7.49665 45.1115 7.31931C45.5128 7.14198 45.9562 7.05331 46.4415 7.05331C46.9268 7.05331 47.3655 7.14198 47.7575 7.31931C48.1588 7.49665 48.5042 7.75331 48.7935 8.08931C49.0828 8.41598 49.3068 8.81265 49.4655 9.27931C49.6242 9.74598 49.7035 10.264 49.7035 10.8333C49.7035 11.412 49.6242 11.9346 49.4655 12.4013C49.3068 12.8586 49.0828 13.2553 48.7935 13.5913C48.5042 13.918 48.1588 14.17 47.7575 14.3473C47.3655 14.5246 46.9268 14.6133 46.4415 14.6133ZM46.4415 13.6193C47.0482 13.6193 47.5428 13.4326 47.9255 13.0593C48.3082 12.686 48.4995 12.1166 48.4995 11.3513V10.3153C48.4995 9.54998 48.3082 8.98065 47.9255 8.60731C47.5428 8.23398 47.0482 8.04731 46.4415 8.04731C45.8348 8.04731 45.3402 8.23398 44.9575 8.60731C44.5748 8.98065 44.3835 9.54998 44.3835 10.3153V11.3513C44.3835 12.1166 44.5748 12.686 44.9575 13.0593C45.3402 13.4326 45.8348 13.6193 46.4415 13.6193ZM51.5455 14.4453V7.22131H52.6655V8.55131H52.7355C52.8661 8.20598 53.0995 7.89798 53.4355 7.62731C53.7715 7.35665 54.2335 7.22131 54.8215 7.22131H55.2555V8.34131H54.5975C53.9908 8.34131 53.5148 8.45798 53.1695 8.69131C52.8335 8.91531 52.6655 9.19998 52.6655 9.54531V14.4453H51.5455ZM56.6861 14.4453V7.22131H57.8061V8.55131H57.8761C58.0068 8.20598 58.2401 7.89798 58.5761 7.62731C58.9121 7.35665 59.3741 7.22131 59.9621 7.22131H60.3961V8.34131H59.7381C59.1314 8.34131 58.6554 8.45798 58.3101 8.69131C57.9741 8.91531 57.8061 9.19998 57.8061 9.54531V14.4453H56.6861ZM64.4744 14.6133C63.9797 14.6133 63.5317 14.5246 63.1304 14.3473C62.7384 14.17 62.3977 13.918 62.1084 13.5913C61.8284 13.2553 61.609 12.8586 61.4504 12.4013C61.301 11.9346 61.2264 11.412 61.2264 10.8333C61.2264 10.264 61.301 9.74598 61.4504 9.27931C61.609 8.81265 61.8284 8.41598 62.1084 8.08931C62.3977 7.75331 62.7384 7.49665 63.1304 7.31931C63.5317 7.14198 63.9797 7.05331 64.4744 7.05331C64.9597 7.05331 65.3937 7.14198 65.7764 7.31931C66.159 7.49665 66.4857 7.74398 66.7564 8.06131C67.027 8.36931 67.2324 8.73798 67.3724 9.16731C67.5217 9.59665 67.5964 10.068 67.5964 10.5813V11.1133H62.4024V11.4493C62.4024 11.7573 62.449 12.0466 62.5424 12.3173C62.645 12.5786 62.785 12.8073 62.9624 13.0033C63.149 13.1993 63.373 13.3533 63.6344 13.4653C63.905 13.5773 64.2084 13.6333 64.5444 13.6333C65.0017 13.6333 65.3984 13.526 65.7344 13.3113C66.0797 13.0966 66.3457 12.7886 66.5324 12.3873L67.3304 12.9613C67.097 13.456 66.733 13.8573 66.2384 14.1653C65.7437 14.464 65.1557 14.6133 64.4744 14.6133ZM64.4744 7.99131C64.1664 7.99131 63.8864 8.04731 63.6344 8.15931C63.3824 8.26198 63.163 8.41131 62.9764 8.60731C62.799 8.80331 62.659 9.03665 62.5564 9.30731C62.4537 9.56865 62.4024 9.85798 62.4024 10.1753V10.2733H66.3924V10.1193C66.3924 9.47531 66.215 8.96198 65.8604 8.57931C65.515 8.18731 65.053 7.99131 64.4744 7.99131ZM72.13 14.6133C71.626 14.6133 71.1733 14.5246 70.772 14.3473C70.3706 14.17 70.03 13.918 69.75 13.5913C69.4793 13.2646 69.2693 12.868 69.12 12.4013C68.98 11.9346 68.91 11.412 68.91 10.8333C68.91 10.2546 68.98 9.73198 69.12 9.26531C69.2693 8.79865 69.4793 8.40198 69.75 8.07531C70.03 7.74865 70.3706 7.49665 70.772 7.31931C71.1733 7.14198 71.626 7.05331 72.13 7.05331C72.8486 7.05331 73.4226 7.21198 73.852 7.52931C74.2906 7.83731 74.6173 8.24331 74.832 8.74731L73.894 9.22331C73.7633 8.84998 73.5486 8.56065 73.25 8.35531C72.9513 8.14998 72.578 8.04731 72.13 8.04731C71.794 8.04731 71.5 8.10331 71.248 8.21531C70.996 8.31798 70.786 8.46731 70.618 8.66331C70.45 8.84998 70.324 9.07865 70.24 9.34931C70.156 9.61065 70.114 9.89998 70.114 10.2173V11.4493C70.114 12.084 70.282 12.6066 70.618 13.0173C70.9633 13.4186 71.4673 13.6193 72.13 13.6193C73.0353 13.6193 73.6886 13.1993 74.09 12.3593L74.902 12.9053C74.6686 13.428 74.3186 13.8433 73.852 14.1513C73.3946 14.4593 72.8206 14.6133 72.13 14.6133ZM78.079 14.4453C77.687 14.4453 77.3883 14.338 77.183 14.1233C76.987 13.8993 76.889 13.61 76.889 13.2553V8.20131H75.699V7.22131H76.371C76.6136 7.22131 76.777 7.17465 76.861 7.08131C76.9543 6.97865 77.001 6.80598 77.001 6.56331V5.21931H78.009V7.22131H79.591V8.20131H78.009V13.4653H79.479V14.4453H78.079ZM84.6998 7.22131H85.8198V8.39731H85.8758C86.0624 7.93998 86.3331 7.60398 86.6878 7.38931C87.0518 7.16531 87.4858 7.05331 87.9898 7.05331C88.4378 7.05331 88.8438 7.14198 89.2078 7.31931C89.5718 7.49665 89.8798 7.74865 90.1318 8.07531C90.3931 8.40198 90.5891 8.79865 90.7198 9.26531C90.8598 9.73198 90.9298 10.2546 90.9298 10.8333C90.9298 11.412 90.8598 11.9346 90.7198 12.4013C90.5891 12.868 90.3931 13.2646 90.1318 13.5913C89.8798 13.918 89.5718 14.17 89.2078 14.3473C88.8438 14.5246 88.4378 14.6133 87.9898 14.6133C87.0098 14.6133 86.3051 14.1653 85.8758 13.2693H85.8198V17.2453H84.6998V7.22131ZM87.6818 13.6053C88.3164 13.6053 88.8158 13.4093 89.1798 13.0173C89.5438 12.616 89.7258 12.0933 89.7258 11.4493V10.2173C89.7258 9.57331 89.5438 9.05531 89.1798 8.66331C88.8158 8.26198 88.3164 8.06131 87.6818 8.06131C87.4298 8.06131 87.1871 8.09865 86.9538 8.17331C86.7298 8.23865 86.5338 8.33198 86.3658 8.45331C86.1978 8.57465 86.0624 8.72398 85.9598 8.90131C85.8664 9.06931 85.8198 9.25131 85.8198 9.44731V12.1353C85.8198 12.3686 85.8664 12.5786 85.9598 12.7653C86.0624 12.9426 86.1978 13.0966 86.3658 13.2273C86.5338 13.3486 86.7298 13.442 86.9538 13.5073C87.1871 13.5726 87.4298 13.6053 87.6818 13.6053ZM98.0709 14.4453C97.6509 14.4453 97.3475 14.3333 97.1609 14.1093C96.9835 13.8853 96.8715 13.6053 96.8249 13.2693H96.7549C96.5962 13.7173 96.3349 14.0533 95.9709 14.2773C95.6069 14.5013 95.1729 14.6133 94.6689 14.6133C93.9035 14.6133 93.3062 14.4173 92.8769 14.0253C92.4569 13.6333 92.2469 13.1013 92.2469 12.4293C92.2469 11.748 92.4942 11.2253 92.9889 10.8613C93.4929 10.4973 94.2722 10.3153 95.3269 10.3153H96.7549V9.60131C96.7549 9.08798 96.6149 8.69598 96.3349 8.42531C96.0549 8.15465 95.6255 8.01931 95.0469 8.01931C94.6082 8.01931 94.2395 8.11731 93.9409 8.31331C93.6515 8.50931 93.4089 8.77065 93.2129 9.09731L92.5409 8.46731C92.7369 8.07531 93.0495 7.74398 93.4789 7.47331C93.9082 7.19331 94.4495 7.05331 95.1029 7.05331C95.9802 7.05331 96.6615 7.26798 97.1469 7.69731C97.6322 8.12665 97.8749 8.72398 97.8749 9.48931V13.4653H98.7009V14.4453H98.0709ZM94.8509 13.6613C95.1309 13.6613 95.3875 13.6286 95.6209 13.5633C95.8542 13.498 96.0549 13.4046 96.2229 13.2833C96.3909 13.162 96.5215 13.022 96.6149 12.8633C96.7082 12.7046 96.7549 12.532 96.7549 12.3453V11.1553H95.2709C94.6269 11.1553 94.1555 11.2486 93.8569 11.4353C93.5675 11.622 93.4229 11.8926 93.4229 12.2473V12.5413C93.4229 12.896 93.5489 13.1713 93.8009 13.3673C94.0622 13.5633 94.4122 13.6613 94.8509 13.6613ZM102.469 14.6133C101.797 14.6133 101.233 14.4873 100.775 14.2353C100.327 13.974 99.94 13.6286 99.6134 13.1993L100.411 12.5553C100.691 12.91 101.004 13.1853 101.349 13.3813C101.695 13.568 102.096 13.6613 102.553 13.6613C103.029 13.6613 103.398 13.5586 103.659 13.3533C103.93 13.148 104.065 12.8586 104.065 12.4853C104.065 12.2053 103.972 11.9673 103.785 11.7713C103.608 11.566 103.281 11.426 102.805 11.3513L102.231 11.2673C101.895 11.2206 101.587 11.1506 101.307 11.0573C101.027 10.9546 100.78 10.824 100.565 10.6653C100.36 10.4973 100.197 10.292 100.075 10.0493C99.9634 9.80665 99.9074 9.51731 99.9074 9.18131C99.9074 8.82665 99.9727 8.51865 100.103 8.25731C100.234 7.98665 100.411 7.76265 100.635 7.58531C100.869 7.40798 101.144 7.27731 101.461 7.19331C101.779 7.09998 102.119 7.05331 102.483 7.05331C103.071 7.05331 103.561 7.15598 103.953 7.36131C104.355 7.56665 104.705 7.85131 105.003 8.21531L104.261 8.88731C104.103 8.66331 103.869 8.46265 103.561 8.28531C103.253 8.09865 102.866 8.00531 102.399 8.00531C101.933 8.00531 101.578 8.10798 101.335 8.31331C101.102 8.50931 100.985 8.77998 100.985 9.12531C100.985 9.47998 101.102 9.73665 101.335 9.89531C101.578 10.054 101.923 10.1706 102.371 10.2453L102.931 10.3293C103.734 10.4506 104.303 10.684 104.639 11.0293C104.975 11.3653 105.143 11.8086 105.143 12.3593C105.143 13.0593 104.905 13.61 104.429 14.0113C103.953 14.4126 103.3 14.6133 102.469 14.6133ZM109.21 14.6133C108.538 14.6133 107.973 14.4873 107.516 14.2353C107.068 13.974 106.68 13.6286 106.354 13.1993L107.152 12.5553C107.432 12.91 107.744 13.1853 108.09 13.3813C108.435 13.568 108.836 13.6613 109.294 13.6613C109.77 13.6613 110.138 13.5586 110.4 13.3533C110.67 13.148 110.806 12.8586 110.806 12.4853C110.806 12.2053 110.712 11.9673 110.526 11.7713C110.348 11.566 110.022 11.426 109.546 11.3513L108.972 11.2673C108.636 11.2206 108.328 11.1506 108.048 11.0573C107.768 10.9546 107.52 10.824 107.306 10.6653C107.1 10.4973 106.937 10.292 106.816 10.0493C106.704 9.80665 106.648 9.51731 106.648 9.18131C106.648 8.82665 106.713 8.51865 106.844 8.25731C106.974 7.98665 107.152 7.76265 107.376 7.58531C107.609 7.40798 107.884 7.27731 108.202 7.19331C108.519 7.09998 108.86 7.05331 109.224 7.05331C109.812 7.05331 110.302 7.15598 110.694 7.36131C111.095 7.56665 111.445 7.85131 111.744 8.21531L111.002 8.88731C110.843 8.66331 110.61 8.46265 110.302 8.28531C109.994 8.09865 109.606 8.00531 109.14 8.00531C108.673 8.00531 108.318 8.10798 108.076 8.31331C107.842 8.50931 107.726 8.77998 107.726 9.12531C107.726 9.47998 107.842 9.73665 108.076 9.89531C108.318 10.054 108.664 10.1706 109.112 10.2453L109.672 10.3293C110.474 10.4506 111.044 10.684 111.38 11.0293C111.716 11.3653 111.884 11.8086 111.884 12.3593C111.884 13.0593 111.646 13.61 111.17 14.0113C110.694 14.4126 110.04 14.6133 109.21 14.6133ZM112.983 7.22131H114.075L114.845 10.3433L115.615 13.5073H115.643L116.525 10.3433L117.435 7.22131H118.429L119.367 10.3433L120.263 13.5073H120.291L121.033 10.3433L121.817 7.22131H122.867L120.949 14.4453H119.563L118.555 10.9733L117.925 8.77531H117.897L117.281 10.9733L116.273 14.4453H114.915L112.983 7.22131ZM127.147 14.6133C126.661 14.6133 126.218 14.5246 125.817 14.3473C125.415 14.17 125.07 13.918 124.781 13.5913C124.501 13.2553 124.281 12.8586 124.123 12.4013C123.964 11.9346 123.885 11.412 123.885 10.8333C123.885 10.264 123.964 9.74598 124.123 9.27931C124.281 8.81265 124.501 8.41598 124.781 8.08931C125.07 7.75331 125.415 7.49665 125.817 7.31931C126.218 7.14198 126.661 7.05331 127.147 7.05331C127.632 7.05331 128.071 7.14198 128.463 7.31931C128.864 7.49665 129.209 7.75331 129.499 8.08931C129.788 8.41598 130.012 8.81265 130.171 9.27931C130.329 9.74598 130.409 10.264 130.409 10.8333C130.409 11.412 130.329 11.9346 130.171 12.4013C130.012 12.8586 129.788 13.2553 129.499 13.5913C129.209 13.918 128.864 14.17 128.463 14.3473C128.071 14.5246 127.632 14.6133 127.147 14.6133ZM127.147 13.6193C127.753 13.6193 128.248 13.4326 128.631 13.0593C129.013 12.686 129.205 12.1166 129.205 11.3513V10.3153C129.205 9.54998 129.013 8.98065 128.631 8.60731C128.248 8.23398 127.753 8.04731 127.147 8.04731C126.54 8.04731 126.045 8.23398 125.663 8.60731C125.28 8.98065 125.089 9.54998 125.089 10.3153V11.3513C125.089 12.1166 125.28 12.686 125.663 13.0593C126.045 13.4326 126.54 13.6193 127.147 13.6193ZM132.251 14.4453V7.22131H133.371V8.55131H133.441C133.571 8.20598 133.805 7.89798 134.141 7.62731C134.477 7.35665 134.939 7.22131 135.527 7.22131H135.961V8.34131H135.303C134.696 8.34131 134.22 8.45798 133.875 8.69131C133.539 8.91531 133.371 9.19998 133.371 9.54531V14.4453H132.251ZM141.929 13.2693H141.873C141.434 14.1653 140.73 14.6133 139.759 14.6133C139.311 14.6133 138.905 14.5246 138.541 14.3473C138.177 14.17 137.864 13.918 137.603 13.5913C137.351 13.2646 137.155 12.868 137.015 12.4013C136.884 11.9346 136.819 11.412 136.819 10.8333C136.819 10.2546 136.884 9.73198 137.015 9.26531C137.155 8.79865 137.351 8.40198 137.603 8.07531C137.864 7.74865 138.177 7.49665 138.541 7.31931C138.905 7.14198 139.311 7.05331 139.759 7.05331C140.263 7.05331 140.692 7.16531 141.047 7.38931C141.411 7.60398 141.686 7.93998 141.873 8.39731H141.929V4.08531H143.049V14.4453H141.929V13.2693ZM140.067 13.6053C140.319 13.6053 140.557 13.5726 140.781 13.5073C141.014 13.442 141.215 13.3486 141.383 13.2273C141.551 13.0966 141.682 12.9426 141.775 12.7653C141.878 12.5786 141.929 12.3686 141.929 12.1353V9.44731C141.929 9.25131 141.878 9.06931 141.775 8.90131C141.682 8.72398 141.551 8.57465 141.383 8.45331C141.215 8.33198 141.014 8.23865 140.781 8.17331C140.557 8.09865 140.319 8.06131 140.067 8.06131C139.432 8.06131 138.933 8.26198 138.569 8.66331C138.205 9.05531 138.023 9.57331 138.023 10.2173V11.4493C138.023 12.0933 138.205 12.616 138.569 13.0173C138.933 13.4093 139.432 13.6053 140.067 13.6053Z" fill="#E23822"/>
</svg>
