<svg width="256" height="19" viewBox="0 0 256 19" fill="none" xmlns="http://www.w3.org/2000/svg">
<path d="M12.75 2.95023C13.8812 3.60337 14.8222 4.54063 15.4799 5.66921C16.1375 6.79779 16.489 8.07856 16.4996 9.38474C16.5101 10.6909 16.1794 11.9772 15.54 13.1163C14.9007 14.2553 13.9749 15.2076 12.8544 15.879C11.7339 16.5503 10.4575 16.9174 9.15157 16.9438C7.84562 16.9702 6.55541 16.6551 5.40867 16.0297C4.26192 15.4042 3.2984 14.4901 2.6135 13.3779C1.9286 12.2656 1.54606 10.9938 1.50375 9.68823L1.5 9.44523L1.50375 9.20223C1.54575 7.90698 1.92266 6.6447 2.59773 5.53848C3.2728 4.43225 4.22299 3.51982 5.35567 2.89014C6.48835 2.26047 7.76486 1.93503 9.06075 1.94556C10.3566 1.95609 11.6277 2.30223 12.75 2.95023ZM9.0075 11.6952L8.91225 11.7005C8.72996 11.7222 8.56196 11.8099 8.44006 11.9472C8.31816 12.0845 8.25084 12.2617 8.25084 12.4452C8.25084 12.6288 8.31816 12.806 8.44006 12.9433C8.56196 13.0805 8.72996 13.1683 8.91225 13.19L9 13.1952L9.09525 13.19C9.27754 13.1683 9.44554 13.0805 9.56744 12.9433C9.68934 12.806 9.75666 12.6288 9.75666 12.4452C9.75666 12.2617 9.68934 12.0845 9.56744 11.9472C9.44554 11.8099 9.27754 11.7222 9.09525 11.7005L9.0075 11.6952ZM9 5.69523C8.8163 5.69526 8.639 5.7627 8.50172 5.88477C8.36444 6.00684 8.27674 6.17504 8.25525 6.35748L8.25 6.44523V9.44523L8.25525 9.53298C8.27693 9.71527 8.36472 9.88327 8.50197 10.0052C8.63923 10.1271 8.81643 10.1944 9 10.1944C9.18357 10.1944 9.36077 10.1271 9.49803 10.0052C9.63528 9.88327 9.72307 9.71527 9.74475 9.53298L9.75 9.44523V6.44523L9.74475 6.35748C9.72326 6.17504 9.63556 6.00684 9.49828 5.88477C9.361 5.7627 9.1837 5.69526 9 5.69523Z" fill="#E23822"/>
<path d="M24.408 4.67331V10.7213C24.408 11.6546 24.5807 12.364 24.926 12.8493C25.2713 13.3253 25.878 13.5633 26.746 13.5633C27.614 13.5633 28.2207 13.3253 28.566 12.8493C28.9113 12.364 29.084 11.6546 29.084 10.7213V4.67331H30.26V10.4413C30.26 11.1506 30.1947 11.7666 30.064 12.2893C29.9427 12.812 29.742 13.246 29.462 13.5913C29.182 13.9366 28.8133 14.1933 28.356 14.3613C27.908 14.5293 27.3573 14.6133 26.704 14.6133C26.0507 14.6133 25.5 14.5293 25.052 14.3613C24.6133 14.1933 24.2587 13.9366 23.988 13.5913C23.7173 13.246 23.5213 12.812 23.4 12.2893C23.288 11.7666 23.232 11.1506 23.232 10.4413V4.67331H24.408ZM34.8483 14.6133C34.1763 14.6133 33.6116 14.4873 33.1543 14.2353C32.7063 13.974 32.3189 13.6286 31.9923 13.1993L32.7903 12.5553C33.0703 12.91 33.3829 13.1853 33.7283 13.3813C34.0736 13.568 34.4749 13.6613 34.9323 13.6613C35.4083 13.6613 35.7769 13.5586 36.0383 13.3533C36.3089 13.148 36.4443 12.8586 36.4443 12.4853C36.4443 12.2053 36.3509 11.9673 36.1643 11.7713C35.9869 11.566 35.6603 11.426 35.1843 11.3513L34.6103 11.2673C34.2743 11.2206 33.9663 11.1506 33.6863 11.0573C33.4063 10.9546 33.1589 10.824 32.9443 10.6653C32.7389 10.4973 32.5756 10.292 32.4543 10.0493C32.3423 9.80665 32.2863 9.51731 32.2863 9.18131C32.2863 8.82665 32.3516 8.51865 32.4823 8.25731C32.6129 7.98665 32.7903 7.76265 33.0143 7.58531C33.2476 7.40798 33.5229 7.27731 33.8403 7.19331C34.1576 7.09998 34.4983 7.05331 34.8623 7.05331C35.4503 7.05331 35.9403 7.15598 36.3323 7.36131C36.7336 7.56665 37.0836 7.85131 37.3823 8.21531L36.6403 8.88731C36.4816 8.66331 36.2483 8.46265 35.9403 8.28531C35.6323 8.09865 35.2449 8.00531 34.7783 8.00531C34.3116 8.00531 33.9569 8.10798 33.7143 8.31331C33.4809 8.50931 33.3643 8.77998 33.3643 9.12531C33.3643 9.47998 33.4809 9.73665 33.7143 9.89531C33.9569 10.054 34.3023 10.1706 34.7503 10.2453L35.3103 10.3293C36.1129 10.4506 36.6823 10.684 37.0183 11.0293C37.3543 11.3653 37.5223 11.8086 37.5223 12.3593C37.5223 13.0593 37.2843 13.61 36.8083 14.0113C36.3323 14.4126 35.6789 14.6133 34.8483 14.6133ZM42.2165 14.6133C41.7219 14.6133 41.2739 14.5246 40.8725 14.3473C40.4805 14.17 40.1399 13.918 39.8505 13.5913C39.5705 13.2553 39.3512 12.8586 39.1925 12.4013C39.0432 11.9346 38.9685 11.412 38.9685 10.8333C38.9685 10.264 39.0432 9.74598 39.1925 9.27931C39.3512 8.81265 39.5705 8.41598 39.8505 8.08931C40.1399 7.75331 40.4805 7.49665 40.8725 7.31931C41.2739 7.14198 41.7219 7.05331 42.2165 7.05331C42.7019 7.05331 43.1359 7.14198 43.5185 7.31931C43.9012 7.49665 44.2279 7.74398 44.4985 8.06131C44.7692 8.36931 44.9745 8.73798 45.1145 9.16731C45.2639 9.59665 45.3385 10.068 45.3385 10.5813V11.1133H40.1445V11.4493C40.1445 11.7573 40.1912 12.0466 40.2845 12.3173C40.3872 12.5786 40.5272 12.8073 40.7045 13.0033C40.8912 13.1993 41.1152 13.3533 41.3765 13.4653C41.6472 13.5773 41.9505 13.6333 42.2865 13.6333C42.7439 13.6333 43.1405 13.526 43.4765 13.3113C43.8219 13.0966 44.0879 12.7886 44.2745 12.3873L45.0725 12.9613C44.8392 13.456 44.4752 13.8573 43.9805 14.1653C43.4859 14.464 42.8979 14.6133 42.2165 14.6133ZM42.2165 7.99131C41.9085 7.99131 41.6285 8.04731 41.3765 8.15931C41.1245 8.26198 40.9052 8.41131 40.7185 8.60731C40.5412 8.80331 40.4012 9.03665 40.2985 9.30731C40.1959 9.56865 40.1445 9.85798 40.1445 10.1753V10.2733H44.1345V10.1193C44.1345 9.47531 43.9572 8.96198 43.6025 8.57931C43.2572 8.18731 42.7952 7.99131 42.2165 7.99131ZM47.1841 14.4453V7.22131H48.3041V8.55131H48.3741C48.5048 8.20598 48.7381 7.89798 49.0741 7.62731C49.4101 7.35665 49.8721 7.22131 50.4601 7.22131H50.8941V8.34131H50.2361C49.6295 8.34131 49.1535 8.45798 48.8081 8.69131C48.4721 8.91531 48.3041 9.19998 48.3041 9.54531V14.4453H47.1841ZM55.6334 14.4453V7.22131H56.7534V8.39731H56.8094C56.9867 7.98665 57.234 7.65998 57.5514 7.41731C57.878 7.17465 58.312 7.05331 58.8534 7.05331C59.6 7.05331 60.188 7.29598 60.6174 7.78131C61.056 8.25731 61.2754 8.93398 61.2754 9.81131V14.4453H60.1554V10.0073C60.1554 8.70998 59.6094 8.06131 58.5174 8.06131C58.2934 8.06131 58.074 8.08931 57.8594 8.14531C57.654 8.20131 57.4674 8.28531 57.2994 8.39731C57.1314 8.50931 56.996 8.65398 56.8934 8.83131C56.8 8.99931 56.7534 9.19998 56.7534 9.43331V14.4453H55.6334ZM66.3204 14.6133C65.8351 14.6133 65.3917 14.5246 64.9904 14.3473C64.5891 14.17 64.2437 13.918 63.9544 13.5913C63.6744 13.2553 63.4551 12.8586 63.2964 12.4013C63.1377 11.9346 63.0584 11.412 63.0584 10.8333C63.0584 10.264 63.1377 9.74598 63.2964 9.27931C63.4551 8.81265 63.6744 8.41598 63.9544 8.08931C64.2437 7.75331 64.5891 7.49665 64.9904 7.31931C65.3917 7.14198 65.8351 7.05331 66.3204 7.05331C66.8057 7.05331 67.2444 7.14198 67.6364 7.31931C68.0377 7.49665 68.3831 7.75331 68.6724 8.08931C68.9617 8.41598 69.1857 8.81265 69.3444 9.27931C69.5031 9.74598 69.5824 10.264 69.5824 10.8333C69.5824 11.412 69.5031 11.9346 69.3444 12.4013C69.1857 12.8586 68.9617 13.2553 68.6724 13.5913C68.3831 13.918 68.0377 14.17 67.6364 14.3473C67.2444 14.5246 66.8057 14.6133 66.3204 14.6133ZM66.3204 13.6193C66.9271 13.6193 67.4217 13.4326 67.8044 13.0593C68.1871 12.686 68.3784 12.1166 68.3784 11.3513V10.3153C68.3784 9.54998 68.1871 8.98065 67.8044 8.60731C67.4217 8.23398 66.9271 8.04731 66.3204 8.04731C65.7137 8.04731 65.2191 8.23398 64.8364 8.60731C64.4537 8.98065 64.2624 9.54998 64.2624 10.3153V11.3513C64.2624 12.1166 64.4537 12.686 64.8364 13.0593C65.2191 13.4326 65.7137 13.6193 66.3204 13.6193ZM73.0204 14.4453C72.6284 14.4453 72.3297 14.338 72.1244 14.1233C71.9284 13.8993 71.8304 13.61 71.8304 13.2553V8.20131H70.6404V7.22131H71.3124C71.555 7.22131 71.7184 7.17465 71.8024 7.08131C71.8957 6.97865 71.9424 6.80598 71.9424 6.56331V5.21931H72.9504V7.22131H74.5324V8.20131H72.9504V13.4653H74.4204V14.4453H73.0204ZM80.0332 8.20131H78.8572V7.22131H80.0332V5.76531C80.0332 5.26131 80.1638 4.85531 80.4252 4.54731C80.6865 4.23931 81.0832 4.08531 81.6152 4.08531H82.7072V5.06531H81.1532V7.22131H82.7072V8.20131H81.1532V14.4453H80.0332V8.20131ZM86.8555 14.6133C86.3702 14.6133 85.9269 14.5246 85.5255 14.3473C85.1242 14.17 84.7789 13.918 84.4895 13.5913C84.2095 13.2553 83.9902 12.8586 83.8315 12.4013C83.6729 11.9346 83.5935 11.412 83.5935 10.8333C83.5935 10.264 83.6729 9.74598 83.8315 9.27931C83.9902 8.81265 84.2095 8.41598 84.4895 8.08931C84.7789 7.75331 85.1242 7.49665 85.5255 7.31931C85.9269 7.14198 86.3702 7.05331 86.8555 7.05331C87.3409 7.05331 87.7795 7.14198 88.1715 7.31931C88.5729 7.49665 88.9182 7.75331 89.2075 8.08931C89.4969 8.41598 89.7209 8.81265 89.8795 9.27931C90.0382 9.74598 90.1175 10.264 90.1175 10.8333C90.1175 11.412 90.0382 11.9346 89.8795 12.4013C89.7209 12.8586 89.4969 13.2553 89.2075 13.5913C88.9182 13.918 88.5729 14.17 88.1715 14.3473C87.7795 14.5246 87.3409 14.6133 86.8555 14.6133ZM86.8555 13.6193C87.4622 13.6193 87.9569 13.4326 88.3395 13.0593C88.7222 12.686 88.9135 12.1166 88.9135 11.3513V10.3153C88.9135 9.54998 88.7222 8.98065 88.3395 8.60731C87.9569 8.23398 87.4622 8.04731 86.8555 8.04731C86.2489 8.04731 85.7542 8.23398 85.3715 8.60731C84.9889 8.98065 84.7975 9.54998 84.7975 10.3153V11.3513C84.7975 12.1166 84.9889 12.686 85.3715 13.0593C85.7542 13.4326 86.2489 13.6193 86.8555 13.6193ZM96.4115 13.2693H96.3555C96.2809 13.4373 96.1875 13.6053 96.0755 13.7733C95.9729 13.932 95.8422 14.0766 95.6835 14.2073C95.5249 14.3286 95.3335 14.4266 95.1095 14.5013C94.8855 14.576 94.6242 14.6133 94.3255 14.6133C93.5789 14.6133 92.9862 14.3753 92.5475 13.8993C92.1089 13.414 91.8895 12.7326 91.8895 11.8553V7.22131H93.0095V11.6593C93.0095 12.9566 93.5602 13.6053 94.6615 13.6053C94.8855 13.6053 95.1002 13.5773 95.3055 13.5213C95.5202 13.4653 95.7069 13.3813 95.8655 13.2693C96.0335 13.1573 96.1642 13.0173 96.2575 12.8493C96.3602 12.672 96.4115 12.462 96.4115 12.2193V7.22131H97.5315V14.4453H96.4115V13.2693ZM99.9166 14.4453V7.22131H101.037V8.39731H101.093C101.27 7.98665 101.517 7.65998 101.835 7.41731C102.161 7.17465 102.595 7.05331 103.137 7.05331C103.883 7.05331 104.471 7.29598 104.901 7.78131C105.339 8.25731 105.559 8.93398 105.559 9.81131V14.4453H104.439V10.0073C104.439 8.70998 103.893 8.06131 102.801 8.06131C102.577 8.06131 102.357 8.08931 102.143 8.14531C101.937 8.20131 101.751 8.28531 101.583 8.39731C101.415 8.50931 101.279 8.65398 101.177 8.83131C101.083 8.99931 101.037 9.19998 101.037 9.43331V14.4453H99.9166ZM112.494 13.2693H112.438C111.999 14.1653 111.294 14.6133 110.324 14.6133C109.876 14.6133 109.47 14.5246 109.106 14.3473C108.742 14.17 108.429 13.918 108.168 13.5913C107.916 13.2646 107.72 12.868 107.58 12.4013C107.449 11.9346 107.384 11.412 107.384 10.8333C107.384 10.2546 107.449 9.73198 107.58 9.26531C107.72 8.79865 107.916 8.40198 108.168 8.07531C108.429 7.74865 108.742 7.49665 109.106 7.31931C109.47 7.14198 109.876 7.05331 110.324 7.05331C110.828 7.05331 111.257 7.16531 111.612 7.38931C111.976 7.60398 112.251 7.93998 112.438 8.39731H112.494V4.08531H113.614V14.4453H112.494V13.2693ZM110.632 13.6053C110.884 13.6053 111.122 13.5726 111.346 13.5073C111.579 13.442 111.78 13.3486 111.948 13.2273C112.116 13.0966 112.246 12.9426 112.34 12.7653C112.442 12.5786 112.494 12.3686 112.494 12.1353V9.44731C112.494 9.25131 112.442 9.06931 112.34 8.90131C112.246 8.72398 112.116 8.57465 111.948 8.45331C111.78 8.33198 111.579 8.23865 111.346 8.17331C111.122 8.09865 110.884 8.06131 110.632 8.06131C109.997 8.06131 109.498 8.26198 109.134 8.66331C108.77 9.05531 108.588 9.57331 108.588 10.2173V11.4493C108.588 12.0933 108.77 12.616 109.134 13.0173C109.498 13.4093 109.997 13.6053 110.632 13.6053ZM116.709 12.8073C117.007 12.8073 117.222 12.8866 117.353 13.0453C117.493 13.1946 117.563 13.3906 117.563 13.6333V13.8293C117.563 14.212 117.451 14.632 117.227 15.0893C117.003 15.556 116.69 15.962 116.289 16.3073H115.351C115.631 16.0086 115.855 15.724 116.023 15.4533C116.2 15.192 116.326 14.898 116.401 14.5713C116.214 14.5246 116.074 14.436 115.981 14.3053C115.897 14.1746 115.855 14.016 115.855 13.8293V13.6333C115.855 13.3906 115.92 13.1946 116.051 13.0453C116.191 12.8866 116.41 12.8073 116.709 12.8073ZM123.118 7.22131H124.238V8.39731H124.294C124.48 7.93998 124.751 7.60398 125.106 7.38931C125.47 7.16531 125.904 7.05331 126.408 7.05331C126.856 7.05331 127.262 7.14198 127.626 7.31931C127.99 7.49665 128.298 7.74865 128.55 8.07531C128.811 8.40198 129.007 8.79865 129.138 9.26531C129.278 9.73198 129.348 10.2546 129.348 10.8333C129.348 11.412 129.278 11.9346 129.138 12.4013C129.007 12.868 128.811 13.2646 128.55 13.5913C128.298 13.918 127.99 14.17 127.626 14.3473C127.262 14.5246 126.856 14.6133 126.408 14.6133C125.428 14.6133 124.723 14.1653 124.294 13.2693H124.238V17.2453H123.118V7.22131ZM126.1 13.6053C126.734 13.6053 127.234 13.4093 127.598 13.0173C127.962 12.616 128.144 12.0933 128.144 11.4493V10.2173C128.144 9.57331 127.962 9.05531 127.598 8.66331C127.234 8.26198 126.734 8.06131 126.1 8.06131C125.848 8.06131 125.605 8.09865 125.372 8.17331C125.148 8.23865 124.952 8.33198 124.784 8.45331C124.616 8.57465 124.48 8.72398 124.378 8.90131C124.284 9.06931 124.238 9.25131 124.238 9.44731V12.1353C124.238 12.3686 124.284 12.5786 124.378 12.7653C124.48 12.9426 124.616 13.0966 124.784 13.2273C124.952 13.3486 125.148 13.442 125.372 13.5073C125.605 13.5726 125.848 13.6053 126.1 13.6053ZM132.429 14.4453C132.037 14.4453 131.738 14.338 131.533 14.1233C131.337 13.8993 131.239 13.6193 131.239 13.2833V4.08531H132.359V13.4653H133.423V14.4453H132.429ZM137.769 14.6133C137.275 14.6133 136.827 14.5246 136.425 14.3473C136.033 14.17 135.693 13.918 135.403 13.5913C135.123 13.2553 134.904 12.8586 134.745 12.4013C134.596 11.9346 134.521 11.412 134.521 10.8333C134.521 10.264 134.596 9.74598 134.745 9.27931C134.904 8.81265 135.123 8.41598 135.403 8.08931C135.693 7.75331 136.033 7.49665 136.425 7.31931C136.827 7.14198 137.275 7.05331 137.769 7.05331C138.255 7.05331 138.689 7.14198 139.071 7.31931C139.454 7.49665 139.781 7.74398 140.051 8.06131C140.322 8.36931 140.527 8.73798 140.667 9.16731C140.817 9.59665 140.891 10.068 140.891 10.5813V11.1133H135.697V11.4493C135.697 11.7573 135.744 12.0466 135.837 12.3173C135.94 12.5786 136.08 12.8073 136.257 13.0033C136.444 13.1993 136.668 13.3533 136.929 13.4653C137.2 13.5773 137.503 13.6333 137.839 13.6333C138.297 13.6333 138.693 13.526 139.029 13.3113C139.375 13.0966 139.641 12.7886 139.827 12.3873L140.625 12.9613C140.392 13.456 140.028 13.8573 139.533 14.1653C139.039 14.464 138.451 14.6133 137.769 14.6133ZM137.769 7.99131C137.461 7.99131 137.181 8.04731 136.929 8.15931C136.677 8.26198 136.458 8.41131 136.271 8.60731C136.094 8.80331 135.954 9.03665 135.851 9.30731C135.749 9.56865 135.697 9.85798 135.697 10.1753V10.2733H139.687V10.1193C139.687 9.47531 139.51 8.96198 139.155 8.57931C138.81 8.18731 138.348 7.99131 137.769 7.99131ZM147.987 14.4453C147.567 14.4453 147.264 14.3333 147.077 14.1093C146.9 13.8853 146.788 13.6053 146.741 13.2693H146.671C146.512 13.7173 146.251 14.0533 145.887 14.2773C145.523 14.5013 145.089 14.6133 144.585 14.6133C143.82 14.6133 143.222 14.4173 142.793 14.0253C142.373 13.6333 142.163 13.1013 142.163 12.4293C142.163 11.748 142.41 11.2253 142.905 10.8613C143.409 10.4973 144.188 10.3153 145.243 10.3153H146.671V9.60131C146.671 9.08798 146.531 8.69598 146.251 8.42531C145.971 8.15465 145.542 8.01931 144.963 8.01931C144.524 8.01931 144.156 8.11731 143.857 8.31331C143.568 8.50931 143.325 8.77065 143.129 9.09731L142.457 8.46731C142.653 8.07531 142.966 7.74398 143.395 7.47331C143.824 7.19331 144.366 7.05331 145.019 7.05331C145.896 7.05331 146.578 7.26798 147.063 7.69731C147.548 8.12665 147.791 8.72398 147.791 9.48931V13.4653H148.617V14.4453H147.987ZM144.767 13.6613C145.047 13.6613 145.304 13.6286 145.537 13.5633C145.77 13.498 145.971 13.4046 146.139 13.2833C146.307 13.162 146.438 13.022 146.531 12.8633C146.624 12.7046 146.671 12.532 146.671 12.3453V11.1553H145.187C144.543 11.1553 144.072 11.2486 143.773 11.4353C143.484 11.622 143.339 11.8926 143.339 12.2473V12.5413C143.339 12.896 143.465 13.1713 143.717 13.3673C143.978 13.5633 144.328 13.6613 144.767 13.6613ZM152.385 14.6133C151.713 14.6133 151.149 14.4873 150.691 14.2353C150.243 13.974 149.856 13.6286 149.529 13.1993L150.327 12.5553C150.607 12.91 150.92 13.1853 151.265 13.3813C151.611 13.568 152.012 13.6613 152.469 13.6613C152.945 13.6613 153.314 13.5586 153.575 13.3533C153.846 13.148 153.981 12.8586 153.981 12.4853C153.981 12.2053 153.888 11.9673 153.701 11.7713C153.524 11.566 153.197 11.426 152.721 11.3513L152.147 11.2673C151.811 11.2206 151.503 11.1506 151.223 11.0573C150.943 10.9546 150.696 10.824 150.481 10.6653C150.276 10.4973 150.113 10.292 149.991 10.0493C149.879 9.80665 149.823 9.51731 149.823 9.18131C149.823 8.82665 149.889 8.51865 150.019 8.25731C150.15 7.98665 150.327 7.76265 150.551 7.58531C150.785 7.40798 151.06 7.27731 151.377 7.19331C151.695 7.09998 152.035 7.05331 152.399 7.05331C152.987 7.05331 153.477 7.15598 153.869 7.36131C154.271 7.56665 154.621 7.85131 154.919 8.21531L154.177 8.88731C154.019 8.66331 153.785 8.46265 153.477 8.28531C153.169 8.09865 152.782 8.00531 152.315 8.00531C151.849 8.00531 151.494 8.10798 151.251 8.31331C151.018 8.50931 150.901 8.77998 150.901 9.12531C150.901 9.47998 151.018 9.73665 151.251 9.89531C151.494 10.054 151.839 10.1706 152.287 10.2453L152.847 10.3293C153.65 10.4506 154.219 10.684 154.555 11.0293C154.891 11.3653 155.059 11.8086 155.059 12.3593C155.059 13.0593 154.821 13.61 154.345 14.0113C153.869 14.4126 153.216 14.6133 152.385 14.6133ZM159.754 14.6133C159.259 14.6133 158.811 14.5246 158.41 14.3473C158.018 14.17 157.677 13.918 157.388 13.5913C157.108 13.2553 156.888 12.8586 156.73 12.4013C156.58 11.9346 156.506 11.412 156.506 10.8333C156.506 10.264 156.58 9.74598 156.73 9.27931C156.888 8.81265 157.108 8.41598 157.388 8.08931C157.677 7.75331 158.018 7.49665 158.41 7.31931C158.811 7.14198 159.259 7.05331 159.754 7.05331C160.239 7.05331 160.673 7.14198 161.056 7.31931C161.438 7.49665 161.765 7.74398 162.036 8.06131C162.306 8.36931 162.512 8.73798 162.652 9.16731C162.801 9.59665 162.876 10.068 162.876 10.5813V11.1133H157.682V11.4493C157.682 11.7573 157.728 12.0466 157.822 12.3173C157.924 12.5786 158.064 12.8073 158.242 13.0033C158.428 13.1993 158.652 13.3533 158.914 13.4653C159.184 13.5773 159.488 13.6333 159.824 13.6333C160.281 13.6333 160.678 13.526 161.014 13.3113C161.359 13.0966 161.625 12.7886 161.812 12.3873L162.61 12.9613C162.376 13.456 162.012 13.8573 161.518 14.1653C161.023 14.464 160.435 14.6133 159.754 14.6133ZM159.754 7.99131C159.446 7.99131 159.166 8.04731 158.914 8.15931C158.662 8.26198 158.442 8.41131 158.256 8.60731C158.078 8.80331 157.938 9.03665 157.836 9.30731C157.733 9.56865 157.682 9.85798 157.682 10.1753V10.2733H161.672V10.1193C161.672 9.47531 161.494 8.96198 161.14 8.57931C160.794 8.18731 160.332 7.99131 159.754 7.99131ZM170.718 14.6133C170.214 14.6133 169.761 14.5246 169.36 14.3473C168.959 14.17 168.618 13.918 168.338 13.5913C168.067 13.2646 167.857 12.868 167.708 12.4013C167.568 11.9346 167.498 11.412 167.498 10.8333C167.498 10.2546 167.568 9.73198 167.708 9.26531C167.857 8.79865 168.067 8.40198 168.338 8.07531C168.618 7.74865 168.959 7.49665 169.36 7.31931C169.761 7.14198 170.214 7.05331 170.718 7.05331C171.437 7.05331 172.011 7.21198 172.44 7.52931C172.879 7.83731 173.205 8.24331 173.42 8.74731L172.482 9.22331C172.351 8.84998 172.137 8.56065 171.838 8.35531C171.539 8.14998 171.166 8.04731 170.718 8.04731C170.382 8.04731 170.088 8.10331 169.836 8.21531C169.584 8.31798 169.374 8.46731 169.206 8.66331C169.038 8.84998 168.912 9.07865 168.828 9.34931C168.744 9.61065 168.702 9.89998 168.702 10.2173V11.4493C168.702 12.084 168.87 12.6066 169.206 13.0173C169.551 13.4186 170.055 13.6193 170.718 13.6193C171.623 13.6193 172.277 13.1993 172.678 12.3593L173.49 12.9053C173.257 13.428 172.907 13.8433 172.44 14.1513C171.983 14.4593 171.409 14.6133 170.718 14.6133ZM177.719 14.6133C177.233 14.6133 176.79 14.5246 176.389 14.3473C175.987 14.17 175.642 13.918 175.353 13.5913C175.073 13.2553 174.853 12.8586 174.695 12.4013C174.536 11.9346 174.457 11.412 174.457 10.8333C174.457 10.264 174.536 9.74598 174.695 9.27931C174.853 8.81265 175.073 8.41598 175.353 8.08931C175.642 7.75331 175.987 7.49665 176.389 7.31931C176.79 7.14198 177.233 7.05331 177.719 7.05331C178.204 7.05331 178.643 7.14198 179.035 7.31931C179.436 7.49665 179.781 7.75331 180.071 8.08931C180.36 8.41598 180.584 8.81265 180.743 9.27931C180.901 9.74598 180.981 10.264 180.981 10.8333C180.981 11.412 180.901 11.9346 180.743 12.4013C180.584 12.8586 180.36 13.2553 180.071 13.5913C179.781 13.918 179.436 14.17 179.035 14.3473C178.643 14.5246 178.204 14.6133 177.719 14.6133ZM177.719 13.6193C178.325 13.6193 178.82 13.4326 179.203 13.0593C179.585 12.686 179.777 12.1166 179.777 11.3513V10.3153C179.777 9.54998 179.585 8.98065 179.203 8.60731C178.82 8.23398 178.325 8.04731 177.719 8.04731C177.112 8.04731 176.617 8.23398 176.235 8.60731C175.852 8.98065 175.661 9.54998 175.661 10.3153V11.3513C175.661 12.1166 175.852 12.686 176.235 13.0593C176.617 13.4326 177.112 13.6193 177.719 13.6193ZM182.823 14.4453V7.22131H183.943V8.39731H183.999C184.176 7.98665 184.423 7.65998 184.741 7.41731C185.067 7.17465 185.501 7.05331 186.043 7.05331C186.789 7.05331 187.377 7.29598 187.807 7.78131C188.245 8.25731 188.465 8.93398 188.465 9.81131V14.4453H187.345V10.0073C187.345 8.70998 186.799 8.06131 185.707 8.06131C185.483 8.06131 185.263 8.08931 185.049 8.14531C184.843 8.20131 184.657 8.28531 184.489 8.39731C184.321 8.50931 184.185 8.65398 184.083 8.83131C183.989 8.99931 183.943 9.19998 183.943 9.43331V14.4453H182.823ZM192.376 14.4453C191.984 14.4453 191.685 14.338 191.48 14.1233C191.284 13.8993 191.186 13.61 191.186 13.2553V8.20131H189.996V7.22131H190.668C190.911 7.22131 191.074 7.17465 191.158 7.08131C191.251 6.97865 191.298 6.80598 191.298 6.56331V5.21931H192.306V7.22131H193.888V8.20131H192.306V13.4653H193.776V14.4453H192.376ZM200.938 14.4453C200.518 14.4453 200.215 14.3333 200.028 14.1093C199.851 13.8853 199.739 13.6053 199.692 13.2693H199.622C199.463 13.7173 199.202 14.0533 198.838 14.2773C198.474 14.5013 198.04 14.6133 197.536 14.6133C196.771 14.6133 196.173 14.4173 195.744 14.0253C195.324 13.6333 195.114 13.1013 195.114 12.4293C195.114 11.748 195.361 11.2253 195.856 10.8613C196.36 10.4973 197.139 10.3153 198.194 10.3153H199.622V9.60131C199.622 9.08798 199.482 8.69598 199.202 8.42531C198.922 8.15465 198.493 8.01931 197.914 8.01931C197.475 8.01931 197.107 8.11731 196.808 8.31331C196.519 8.50931 196.276 8.77065 196.08 9.09731L195.408 8.46731C195.604 8.07531 195.917 7.74398 196.346 7.47331C196.775 7.19331 197.317 7.05331 197.97 7.05331C198.847 7.05331 199.529 7.26798 200.014 7.69731C200.499 8.12665 200.742 8.72398 200.742 9.48931V13.4653H201.568V14.4453H200.938ZM197.718 13.6613C197.998 13.6613 198.255 13.6286 198.488 13.5633C198.721 13.498 198.922 13.4046 199.09 13.2833C199.258 13.162 199.389 13.022 199.482 12.8633C199.575 12.7046 199.622 12.532 199.622 12.3453V11.1553H198.138C197.494 11.1553 197.023 11.2486 196.724 11.4353C196.435 11.622 196.29 11.8926 196.29 12.2473V12.5413C196.29 12.896 196.416 13.1713 196.668 13.3673C196.929 13.5633 197.279 13.6613 197.718 13.6613ZM205.855 14.6133C205.351 14.6133 204.898 14.5246 204.497 14.3473C204.095 14.17 203.755 13.918 203.475 13.5913C203.204 13.2646 202.994 12.868 202.845 12.4013C202.705 11.9346 202.635 11.412 202.635 10.8333C202.635 10.2546 202.705 9.73198 202.845 9.26531C202.994 8.79865 203.204 8.40198 203.475 8.07531C203.755 7.74865 204.095 7.49665 204.497 7.31931C204.898 7.14198 205.351 7.05331 205.855 7.05331C206.573 7.05331 207.147 7.21198 207.577 7.52931C208.015 7.83731 208.342 8.24331 208.557 8.74731L207.619 9.22331C207.488 8.84998 207.273 8.56065 206.975 8.35531C206.676 8.14998 206.303 8.04731 205.855 8.04731C205.519 8.04731 205.225 8.10331 204.973 8.21531C204.721 8.31798 204.511 8.46731 204.343 8.66331C204.175 8.84998 204.049 9.07865 203.965 9.34931C203.881 9.61065 203.839 9.89998 203.839 10.2173V11.4493C203.839 12.084 204.007 12.6066 204.343 13.0173C204.688 13.4186 205.192 13.6193 205.855 13.6193C206.76 13.6193 207.413 13.1993 207.815 12.3593L208.627 12.9053C208.393 13.428 208.043 13.8433 207.577 14.1513C207.119 14.4593 206.545 14.6133 205.855 14.6133ZM211.804 14.4453C211.412 14.4453 211.113 14.338 210.908 14.1233C210.712 13.8993 210.614 13.61 210.614 13.2553V8.20131H209.424V7.22131H210.096C210.338 7.22131 210.502 7.17465 210.586 7.08131C210.679 6.97865 210.726 6.80598 210.726 6.56331V5.21931H211.734V7.22131H213.316V8.20131H211.734V13.4653H213.204V14.4453H211.804ZM223.674 14.4453C223.254 14.4453 222.951 14.3333 222.764 14.1093C222.587 13.8853 222.475 13.6053 222.428 13.2693H222.358C222.2 13.7173 221.938 14.0533 221.574 14.2773C221.21 14.5013 220.776 14.6133 220.272 14.6133C219.507 14.6133 218.91 14.4173 218.48 14.0253C218.06 13.6333 217.85 13.1013 217.85 12.4293C217.85 11.748 218.098 11.2253 218.592 10.8613C219.096 10.4973 219.876 10.3153 220.93 10.3153H222.358V9.60131C222.358 9.08798 222.218 8.69598 221.938 8.42531C221.658 8.15465 221.229 8.01931 220.65 8.01931C220.212 8.01931 219.843 8.11731 219.544 8.31331C219.255 8.50931 219.012 8.77065 218.816 9.09731L218.144 8.46731C218.34 8.07531 218.653 7.74398 219.082 7.47331C219.512 7.19331 220.053 7.05331 220.706 7.05331C221.584 7.05331 222.265 7.26798 222.75 7.69731C223.236 8.12665 223.478 8.72398 223.478 9.48931V13.4653H224.304V14.4453H223.674ZM220.454 13.6613C220.734 13.6613 220.991 13.6286 221.224 13.5633C221.458 13.498 221.658 13.4046 221.826 13.2833C221.994 13.162 222.125 13.022 222.218 12.8633C222.312 12.7046 222.358 12.532 222.358 12.3453V11.1553H220.874C220.23 11.1553 219.759 11.2486 219.46 11.4353C219.171 11.622 219.026 11.8926 219.026 12.2473V12.5413C219.026 12.896 219.152 13.1713 219.404 13.3673C219.666 13.5633 220.016 13.6613 220.454 13.6613ZM230.523 13.2693H230.467C230.028 14.1653 229.324 14.6133 228.353 14.6133C227.905 14.6133 227.499 14.5246 227.135 14.3473C226.771 14.17 226.458 13.918 226.197 13.5913C225.945 13.2646 225.749 12.868 225.609 12.4013C225.478 11.9346 225.413 11.412 225.413 10.8333C225.413 10.2546 225.478 9.73198 225.609 9.26531C225.749 8.79865 225.945 8.40198 226.197 8.07531C226.458 7.74865 226.771 7.49665 227.135 7.31931C227.499 7.14198 227.905 7.05331 228.353 7.05331C228.857 7.05331 229.286 7.16531 229.641 7.38931C230.005 7.60398 230.28 7.93998 230.467 8.39731H230.523V4.08531H231.643V14.4453H230.523V13.2693ZM228.661 13.6053C228.913 13.6053 229.151 13.5726 229.375 13.5073C229.608 13.442 229.809 13.3486 229.977 13.2273C230.145 13.0966 230.276 12.9426 230.369 12.7653C230.472 12.5786 230.523 12.3686 230.523 12.1353V9.44731C230.523 9.25131 230.472 9.06931 230.369 8.90131C230.276 8.72398 230.145 8.57465 229.977 8.45331C229.809 8.33198 229.608 8.23865 229.375 8.17331C229.151 8.09865 228.913 8.06131 228.661 8.06131C228.026 8.06131 227.527 8.26198 227.163 8.66331C226.799 9.05531 226.617 9.57331 226.617 10.2173V11.4493C226.617 12.0933 226.799 12.616 227.163 13.0173C227.527 13.4093 228.026 13.6053 228.661 13.6053ZM234.024 14.4453V7.22131H235.144V8.39731H235.2C235.284 8.21065 235.377 8.03798 235.48 7.87931C235.592 7.71131 235.723 7.56665 235.872 7.44531C236.031 7.32398 236.213 7.23065 236.418 7.16531C236.623 7.09065 236.866 7.05331 237.146 7.05331C237.622 7.05331 238.061 7.16998 238.462 7.40331C238.863 7.62731 239.162 8.00065 239.358 8.52331H239.386C239.517 8.13131 239.759 7.79065 240.114 7.50131C240.478 7.20265 240.968 7.05331 241.584 7.05331C242.321 7.05331 242.895 7.29598 243.306 7.78131C243.726 8.25731 243.936 8.93398 243.936 9.81131V14.4453H242.816V10.0073C242.816 9.36331 242.69 8.87798 242.438 8.55131C242.186 8.22465 241.785 8.06131 241.234 8.06131C241.01 8.06131 240.795 8.08931 240.59 8.14531C240.394 8.20131 240.217 8.28531 240.058 8.39731C239.899 8.50931 239.773 8.65398 239.68 8.83131C239.587 8.99931 239.54 9.19998 239.54 9.43331V14.4453H238.42V10.0073C238.42 9.36331 238.294 8.87798 238.042 8.55131C237.79 8.22465 237.398 8.06131 236.866 8.06131C236.642 8.06131 236.427 8.08931 236.222 8.14531C236.017 8.20131 235.835 8.28531 235.676 8.39731C235.517 8.50931 235.387 8.65398 235.284 8.83131C235.191 8.99931 235.144 9.19998 235.144 9.43331V14.4453H234.024ZM246.807 5.52731C246.564 5.52731 246.387 5.47131 246.275 5.35931C246.172 5.23798 246.121 5.08398 246.121 4.89731V4.71531C246.121 4.52865 246.172 4.37931 246.275 4.26731C246.387 4.14598 246.564 4.08531 246.807 4.08531C247.049 4.08531 247.222 4.14598 247.325 4.26731C247.437 4.37931 247.493 4.52865 247.493 4.71531V4.89731C247.493 5.08398 247.437 5.23798 247.325 5.35931C247.222 5.47131 247.049 5.52731 246.807 5.52731ZM246.247 7.22131H247.367V14.4453H246.247V7.22131ZM249.747 14.4453V7.22131H250.867V8.39731H250.923C251.1 7.98665 251.347 7.65998 251.665 7.41731C251.991 7.17465 252.425 7.05331 252.967 7.05331C253.713 7.05331 254.301 7.29598 254.731 7.78131C255.169 8.25731 255.389 8.93398 255.389 9.81131V14.4453H254.269V10.0073C254.269 8.70998 253.723 8.06131 252.631 8.06131C252.407 8.06131 252.187 8.08931 251.973 8.14531C251.767 8.20131 251.581 8.28531 251.413 8.39731C251.245 8.50931 251.109 8.65398 251.007 8.83131C250.913 8.99931 250.867 9.19998 250.867 9.43331V14.4453H249.747Z" fill="#E23822"/>
</svg>
