<svg width="63" height="24" viewBox="0 0 63 24" fill="none" xmlns="http://www.w3.org/2000/svg">
<path fill-rule="evenodd" clip-rule="evenodd" d="M9.14124 3.64124C10.032 2.75044 11.2402 2.25 12.5 2.25C13.7598 2.25 14.968 2.75044 15.8588 3.64124C16.7496 4.53204 17.25 5.74022 17.25 7C17.25 8.25978 16.7496 9.46796 15.8588 10.3588C14.968 11.2496 13.7598 11.75 12.5 11.75C11.2402 11.75 10.032 11.2496 9.14124 10.3588C8.25044 9.46796 7.75 8.25978 7.75 7C7.75 5.74022 8.25044 4.53204 9.14124 3.64124ZM12.5 3.75C11.638 3.75 10.8114 4.09241 10.2019 4.7019C9.59241 5.3114 9.25 6.13805 9.25 7C9.25 7.86195 9.59241 8.6886 10.2019 9.2981C10.8114 9.90759 11.638 10.25 12.5 10.25C13.362 10.25 14.1886 9.90759 14.7981 9.2981C15.4076 8.6886 15.75 7.86195 15.75 7C15.75 6.13805 15.4076 5.3114 14.7981 4.7019C14.1886 4.09241 13.362 3.75 12.5 3.75ZM10.5 15.75C9.63805 15.75 8.8114 16.0924 8.2019 16.7019C7.59241 17.3114 7.25 18.138 7.25 19V21C7.25 21.4142 6.91421 21.75 6.5 21.75C6.08579 21.75 5.75 21.4142 5.75 21V19C5.75 17.7402 6.25044 16.532 7.14124 15.6412C8.03204 14.7504 9.24022 14.25 10.5 14.25H14.5C14.9142 14.25 15.25 14.5858 15.25 15C15.25 15.4142 14.9142 15.75 14.5 15.75H10.5ZM22.0303 16.4697C22.3232 16.7626 22.3232 17.2374 22.0303 17.5303L18.0303 21.5303C17.7374 21.8232 17.2626 21.8232 16.9697 21.5303L14.9697 19.5303C14.6768 19.2374 14.6768 18.7626 14.9697 18.4697C15.2626 18.1768 15.7374 18.1768 16.0303 18.4697L17.5 19.9393L20.9697 16.4697C21.2626 16.1768 21.7374 16.1768 22.0303 16.4697Z" fill="#1C524C"/>
<path d="M37.5347 17.196C36.7601 17.196 36.0927 17.056 35.5327 16.776C34.9821 16.496 34.5527 16.0947 34.2447 15.572C33.9461 15.04 33.7967 14.396 33.7967 13.64V7.2H35.3227V13.682C35.3227 14.3727 35.5141 14.9047 35.8967 15.278C36.2794 15.6513 36.8254 15.838 37.5347 15.838C38.2441 15.838 38.7901 15.6513 39.1727 15.278C39.5554 14.9047 39.7467 14.3727 39.7467 13.682V7.2H41.2587V13.64C41.2587 14.396 41.1094 15.04 40.8107 15.572C40.5121 16.0947 40.0827 16.496 39.5227 16.776C38.9627 17.056 38.3001 17.196 37.5347 17.196ZM46.102 17.196C45.2246 17.196 44.4966 17 43.918 16.608C43.3393 16.216 42.9846 15.6233 42.854 14.83L44.198 14.508C44.2726 14.8907 44.3986 15.194 44.576 15.418C44.7533 15.642 44.9726 15.8007 45.234 15.894C45.5046 15.9873 45.794 16.034 46.102 16.034C46.5593 16.034 46.9093 15.9453 47.152 15.768C47.404 15.5907 47.53 15.362 47.53 15.082C47.53 14.802 47.4133 14.5967 47.18 14.466C46.9466 14.3353 46.6013 14.228 46.144 14.144L45.668 14.06C45.2013 13.976 44.7766 13.8547 44.394 13.696C44.0113 13.5373 43.708 13.318 43.484 13.038C43.26 12.758 43.148 12.3987 43.148 11.96C43.148 11.3067 43.3906 10.8027 43.876 10.448C44.3613 10.084 45.0053 9.902 45.808 9.902C46.5826 9.902 47.2173 10.0793 47.712 10.434C48.216 10.7793 48.5426 11.2507 48.692 11.848L47.348 12.226C47.264 11.806 47.0866 11.512 46.816 11.344C46.5453 11.1667 46.2093 11.078 45.808 11.078C45.416 11.078 45.108 11.1527 44.884 11.302C44.66 11.442 44.548 11.6427 44.548 11.904C44.548 12.184 44.6553 12.3893 44.87 12.52C45.094 12.6507 45.3926 12.7487 45.766 12.814L46.256 12.898C46.7506 12.982 47.2033 13.0987 47.614 13.248C48.0246 13.3973 48.3466 13.612 48.58 13.892C48.8226 14.172 48.944 14.5453 48.944 15.012C48.944 15.7027 48.6873 16.2393 48.174 16.622C47.6606 17.0047 46.97 17.196 46.102 17.196ZM53.7934 17.196C53.0934 17.196 52.4821 17.0513 51.9594 16.762C51.4368 16.4633 51.0261 16.048 50.7274 15.516C50.4381 14.9747 50.2934 14.3493 50.2934 13.64V13.472C50.2934 12.7533 50.4381 12.128 50.7274 11.596C51.0168 11.0547 51.4181 10.6393 51.9314 10.35C52.4541 10.0513 53.0561 9.902 53.7374 9.902C54.4001 9.902 54.9788 10.0513 55.4734 10.35C55.9774 10.6393 56.3694 11.0453 56.6494 11.568C56.9294 12.0907 57.0694 12.702 57.0694 13.402V13.948H51.7634C51.7821 14.5547 51.9828 15.04 52.3654 15.404C52.7574 15.7587 53.2428 15.936 53.8214 15.936C54.3628 15.936 54.7688 15.8147 55.0394 15.572C55.3194 15.3293 55.5341 15.0493 55.6834 14.732L56.8734 15.348C56.7428 15.6093 56.5514 15.8847 56.2994 16.174C56.0568 16.4633 55.7348 16.706 55.3334 16.902C54.9321 17.098 54.4188 17.196 53.7934 17.196ZM51.7774 12.842H55.5994C55.5621 12.3193 55.3754 11.9133 55.0394 11.624C54.7034 11.3253 54.2648 11.176 53.7234 11.176C53.1821 11.176 52.7388 11.3253 52.3934 11.624C52.0574 11.9133 51.8521 12.3193 51.7774 12.842ZM58.8052 17V10.098H60.2192V10.91H60.4432C60.5552 10.6207 60.7325 10.4107 60.9752 10.28C61.2272 10.14 61.5352 10.07 61.8992 10.07H62.7252V11.372H61.8432C61.3765 11.372 60.9939 11.5027 60.6952 11.764C60.3965 12.016 60.2472 12.408 60.2472 12.94V17H58.8052Z" fill="#1C524C"/>
</svg>
